<svg xmlns="http://www.w3.org/2000/svg" xmlns:xlink="http://www.w3.org/1999/xlink" width="150" zoomAndPan="magnify" viewBox="0 0 112.5 37.5" height="50" preserveAspectRatio="xMidYMid meet" version="1.0"><defs><g/><clipPath id="44fda4973f"><path d="M 2.148438 21 L 3 21 L 3 22 L 2.148438 22 Z M 2.148438 21 " clip-rule="nonzero"/></clipPath><clipPath id="f9df8f185a"><path d="M 2.148438 20 L 4 20 L 4 23 L 2.148438 23 Z M 2.148438 20 " clip-rule="nonzero"/></clipPath><clipPath id="c274ca75c2"><path d="M 2.148438 18 L 4 18 L 4 21 L 2.148438 21 Z M 2.148438 18 " clip-rule="nonzero"/></clipPath><clipPath id="43c0b78de0"><path d="M 2.148438 17 L 4 17 L 4 20 L 2.148438 20 Z M 2.148438 17 " clip-rule="nonzero"/></clipPath><clipPath id="9b1c97945f"><path d="M 2.148438 15 L 4 15 L 4 18 L 2.148438 18 Z M 2.148438 15 " clip-rule="nonzero"/></clipPath><clipPath id="9a719ef515"><path d="M 2.148438 16 L 3 16 L 3 19 L 2.148438 19 Z M 2.148438 16 " clip-rule="nonzero"/></clipPath><clipPath id="cd84e26aa5"><path d="M 2.148438 14 L 3 14 L 3 17 L 2.148438 17 Z M 2.148438 14 " clip-rule="nonzero"/></clipPath><clipPath id="6e0cea1b59"><path d="M 2.148438 13 L 3 13 L 3 16 L 2.148438 16 Z M 2.148438 13 " clip-rule="nonzero"/></clipPath><clipPath id="6207afae0e"><path d="M 2.148438 12 L 4 12 L 4 15 L 2.148438 15 Z M 2.148438 12 " clip-rule="nonzero"/></clipPath><clipPath id="3163eed4dd"><path d="M 2.148438 11 L 4 11 L 4 14 L 2.148438 14 Z M 2.148438 11 " clip-rule="nonzero"/></clipPath><clipPath id="75fc2efb5e"><path d="M 12 31 L 14 31 L 14 32.664062 L 12 32.664062 Z M 12 31 " clip-rule="nonzero"/></clipPath><clipPath id="614bb17827"><path d="M 13 31 L 15 31 L 15 32.664062 L 13 32.664062 Z M 13 31 " clip-rule="nonzero"/></clipPath><clipPath id="1efb63d50a"><path d="M 13 32 L 16 32 L 16 32.664062 L 13 32.664062 Z M 13 32 " clip-rule="nonzero"/></clipPath><clipPath id="13a13cbc45"><path d="M 14 31 L 16 31 L 16 32.664062 L 14 32.664062 Z M 14 31 " clip-rule="nonzero"/></clipPath><clipPath id="e616f0f9ce"><path d="M 15 32 L 17 32 L 17 32.664062 L 15 32.664062 Z M 15 32 " clip-rule="nonzero"/></clipPath><clipPath id="a033e81fb9"><path d="M 16 32 L 18 32 L 18 32.664062 L 16 32.664062 Z M 16 32 " clip-rule="nonzero"/></clipPath><clipPath id="bf4a2a26f6"><path d="M 15 32 L 17 32 L 17 32.664062 L 15 32.664062 Z M 15 32 " clip-rule="nonzero"/></clipPath><clipPath id="3b77714e26"><path d="M 16 32 L 18 32 L 18 32.664062 L 16 32.664062 Z M 16 32 " clip-rule="nonzero"/></clipPath><clipPath id="7a27838069"><path d="M 18 31 L 19 31 L 19 32.664062 L 18 32.664062 Z M 18 31 " clip-rule="nonzero"/></clipPath><clipPath id="63d5ff2f2d"><path d="M 8 3.058594 L 10 3.058594 L 10 5 L 8 5 Z M 8 3.058594 " clip-rule="nonzero"/></clipPath><clipPath id="1702971924"><path d="M 18 32 L 19 32 L 19 32.664062 L 18 32.664062 Z M 18 32 " clip-rule="nonzero"/></clipPath><clipPath id="87b33eea92"><path d="M 10 3.058594 L 12 3.058594 L 12 4 L 10 4 Z M 10 3.058594 " clip-rule="nonzero"/></clipPath><clipPath id="4707541cd0"><path d="M 18 32 L 20 32 L 20 32.664062 L 18 32.664062 Z M 18 32 " clip-rule="nonzero"/></clipPath><clipPath id="470aaca02c"><path d="M 8 3.058594 L 10 3.058594 L 10 5 L 8 5 Z M 8 3.058594 " clip-rule="nonzero"/></clipPath><clipPath id="60dade3a07"><path d="M 11 3.058594 L 12 3.058594 L 12 4 L 11 4 Z M 11 3.058594 " clip-rule="nonzero"/></clipPath><clipPath id="0f5e4c8f39"><path d="M 10 3.058594 L 12 3.058594 L 12 4 L 10 4 Z M 10 3.058594 " clip-rule="nonzero"/></clipPath><clipPath id="61e20e0a0c"><path d="M 10 3.058594 L 12 3.058594 L 12 4 L 10 4 Z M 10 3.058594 " clip-rule="nonzero"/></clipPath><clipPath id="24382b52d1"><path d="M 19 32 L 20 32 L 20 32.664062 L 19 32.664062 Z M 19 32 " clip-rule="nonzero"/></clipPath><clipPath id="9f434971c2"><path d="M 11 3.058594 L 13 3.058594 L 13 4 L 11 4 Z M 11 3.058594 " clip-rule="nonzero"/></clipPath><clipPath id="2011fe1d88"><path d="M 19 32 L 20 32 L 20 32.664062 L 19 32.664062 Z M 19 32 " clip-rule="nonzero"/></clipPath><clipPath id="33f692009d"><path d="M 9 3.058594 L 10 3.058594 L 10 4 L 9 4 Z M 9 3.058594 " clip-rule="nonzero"/></clipPath><clipPath id="ea8db3d3bc"><path d="M 12 3.058594 L 13 3.058594 L 13 4 L 12 4 Z M 12 3.058594 " clip-rule="nonzero"/></clipPath><clipPath id="860f1f3968"><path d="M 20 31 L 22 31 L 22 32.664062 L 20 32.664062 Z M 20 31 " clip-rule="nonzero"/></clipPath><clipPath id="ab4452bf04"><path d="M 24 18 L 25.832031 18 L 25.832031 19 L 24 19 Z M 24 18 " clip-rule="nonzero"/></clipPath><clipPath id="533959d83a"><path d="M 25 21 L 25.832031 21 L 25.832031 22 L 25 22 Z M 25 21 " clip-rule="nonzero"/></clipPath><clipPath id="6b499729e2"><path d="M 20 32 L 21 32 L 21 32.664062 L 20 32.664062 Z M 20 32 " clip-rule="nonzero"/></clipPath><clipPath id="decd1a5dca"><path d="M 25 24 L 25.832031 24 L 25.832031 25 L 25 25 Z M 25 24 " clip-rule="nonzero"/></clipPath></defs><path fill="#ffffff" d="M 7.355469 28.421875 C 7.082031 28.140625 6.605469 27.675781 6.40625 27.550781 C 6.394531 27.546875 6.378906 27.542969 6.367188 27.542969 C 6.371094 27.675781 7.617188 28.882812 7.757812 28.886719 C 7.753906 28.835938 7.539062 28.605469 7.355469 28.421875 " fill-opacity="1" fill-rule="nonzero"/><path fill="#ffffff" d="M 8.976562 29.589844 C 8.6875 29.34375 8.164062 28.941406 7.90625 28.84375 C 7.886719 28.835938 7.859375 28.828125 7.851562 28.839844 C 7.800781 28.882812 8.128906 29.191406 8.464844 29.449219 C 8.894531 29.785156 9.289062 30.027344 9.359375 30 C 9.382812 29.949219 9.128906 29.722656 8.976562 29.589844 " fill-opacity="1" fill-rule="nonzero"/><path fill="#ffffff" d="M 3.589844 23.300781 C 3.585938 23.296875 3.574219 23.289062 3.5625 23.289062 C 3.5625 23.464844 4.394531 25.054688 4.492188 25.0625 C 4.492188 24.992188 4.328125 24.644531 4.226562 24.441406 C 4.054688 24.089844 3.726562 23.46875 3.589844 23.300781 " fill-opacity="1" fill-rule="nonzero"/><path fill="#ffffff" d="M 4.625 25.011719 C 4.609375 25 4.585938 24.992188 4.578125 25.003906 C 4.46875 25.113281 5.445312 26.554688 5.675781 26.628906 C 5.765625 26.65625 5.667969 26.417969 5.441406 26.046875 C 5.226562 25.699219 4.832031 25.148438 4.625 25.011719 " fill-opacity="1" fill-rule="nonzero"/><path fill="#ffffff" d="M 6.902344 27.476562 C 6.664062 27.160156 6.207031 26.667969 5.933594 26.554688 C 5.914062 26.546875 5.882812 26.539062 5.863281 26.550781 C 5.675781 26.683594 6.777344 27.972656 7.117188 28.019531 C 7.242188 28.035156 7.152344 27.8125 6.902344 27.476562 " fill-opacity="1" fill-rule="nonzero"/><g clip-path="url(#44fda4973f)"><path fill="#ffffff" d="M 2.855469 21.445312 C 2.867188 21.480469 2.882812 21.53125 2.90625 21.59375 C 2.890625 21.542969 2.871094 21.492188 2.855469 21.445312 " fill-opacity="1" fill-rule="nonzero"/></g><path fill="#ffffff" d="M 4.070312 23.890625 C 4.199219 23.964844 4.175781 23.671875 4.015625 23.207031 C 3.875 22.804688 3.585938 22.175781 3.378906 22.027344 C 3.367188 22.019531 3.351562 22.011719 3.335938 22.015625 C 3.121094 22.058594 3.769531 23.722656 4.070312 23.890625 " fill-opacity="1" fill-rule="nonzero"/><path fill="#ffffff" d="M 5.285156 25.523438 C 5.464844 25.582031 5.449219 25.300781 5.253906 24.871094 C 5.085938 24.496094 4.71875 23.914062 4.433594 23.789062 C 4.40625 23.785156 4.375 23.777344 4.347656 23.792969 C 4.097656 23.949219 4.878906 25.390625 5.285156 25.523438 " fill-opacity="1" fill-rule="nonzero"/><path fill="#ffffff" d="M 6.714844 26.976562 C 6.972656 27.0625 6.992188 26.789062 6.757812 26.367188 C 6.535156 25.96875 6.09375 25.484375 5.773438 25.394531 C 5.742188 25.394531 5.699219 25.386719 5.667969 25.40625 C 5.359375 25.566406 6.179688 26.800781 6.714844 26.976562 " fill-opacity="1" fill-rule="nonzero"/><g clip-path="url(#f9df8f185a)"><path fill="#ffffff" d="M 2.648438 20.132812 C 2.640625 20.128906 2.628906 20.121094 2.621094 20.117188 C 2.492188 20.199219 3.003906 22.066406 3.167969 22.117188 C 3.234375 22.074219 3.113281 21.550781 3.074219 21.390625 C 2.980469 20.996094 2.78125 20.308594 2.648438 20.132812 " fill-opacity="1" fill-rule="nonzero"/></g><path fill="#ffffff" d="M 3.957031 22.574219 C 4.167969 22.691406 4.246094 22.355469 4.128906 21.828125 C 4.035156 21.40625 3.777344 20.753906 3.496094 20.625 C 3.476562 20.621094 3.449219 20.617188 3.433594 20.621094 C 3.070312 20.699219 3.507812 22.328125 3.957031 22.574219 " fill-opacity="1" fill-rule="nonzero"/><path fill="#ffffff" d="M 5.144531 24.25 C 5.445312 24.402344 5.5625 24.074219 5.398438 23.542969 C 5.269531 23.140625 4.929688 22.53125 4.5625 22.425781 C 4.539062 22.421875 4.503906 22.417969 4.480469 22.425781 C 4.050781 22.527344 4.570312 23.960938 5.144531 24.25 " fill-opacity="1" fill-rule="nonzero"/><path fill="#ffffff" d="M 6.578125 25.761719 C 6.976562 25.941406 7.140625 25.625 6.925781 25.09375 C 6.777344 24.71875 6.371094 24.160156 5.9375 24.085938 C 5.898438 24.082031 5.84375 24.082031 5.796875 24.105469 C 5.394531 24.296875 5.949219 25.46875 6.578125 25.761719 " fill-opacity="1" fill-rule="nonzero"/><g clip-path="url(#c274ca75c2)"><path fill="#ffffff" d="M 3.035156 20.738281 C 3.183594 20.871094 3.25 20.539062 3.183594 20 C 3.132812 19.578125 2.972656 18.917969 2.777344 18.769531 C 2.761719 18.765625 2.742188 18.757812 2.730469 18.757812 C 2.460938 18.808594 2.714844 20.453125 3.035156 20.738281 " fill-opacity="1" fill-rule="nonzero"/></g><path fill="#ffffff" d="M 4.570312 20.335938 C 4.523438 19.910156 4.296875 19.265625 3.945312 19.164062 C 3.917969 19.160156 3.882812 19.15625 3.859375 19.164062 C 3.421875 19.265625 3.605469 20.707031 4.105469 21.089844 C 4.410156 21.324219 4.636719 20.957031 4.570312 20.335938 " fill-opacity="1" fill-rule="nonzero"/><path fill="#ffffff" d="M 5.84375 22.058594 C 5.757812 21.632812 5.445312 21 5.015625 20.925781 C 4.984375 20.921875 4.945312 20.921875 4.914062 20.929688 C 4.417969 21.058594 4.679688 22.382812 5.285156 22.796875 C 5.695312 23.078125 5.972656 22.710938 5.84375 22.058594 " fill-opacity="1" fill-rule="nonzero"/><path fill="#ffffff" d="M 7.371094 23.660156 C 7.257812 23.253906 6.878906 22.664062 6.390625 22.613281 C 6.355469 22.613281 6.308594 22.617188 6.273438 22.625 C 5.730469 22.78125 6.085938 24.035156 6.777344 24.394531 C 7.25 24.636719 7.539062 24.273438 7.371094 23.660156 " fill-opacity="1" fill-rule="nonzero"/><g clip-path="url(#43c0b78de0)"><path fill="#ffffff" d="M 3.242188 19.304688 C 3.453125 19.484375 3.628906 19.136719 3.621094 18.554688 C 3.617188 18.132812 3.488281 17.480469 3.222656 17.355469 C 3.203125 17.351562 3.175781 17.347656 3.15625 17.351562 C 2.777344 17.429688 2.84375 18.960938 3.242188 19.304688 " fill-opacity="1" fill-rule="nonzero"/></g><path fill="#ffffff" d="M 5.300781 18.78125 C 5.292969 18.355469 5.097656 17.71875 4.6875 17.644531 C 4.671875 17.644531 4.652344 17.640625 4.636719 17.644531 C 4.09375 17.683594 4.035156 18.980469 4.550781 19.496094 C 4.921875 19.867188 5.3125 19.492188 5.300781 18.78125 " fill-opacity="1" fill-rule="nonzero"/><path fill="#ffffff" d="M 6.542969 20.453125 C 6.5 20.023438 6.21875 19.398438 5.746094 19.347656 C 5.726562 19.347656 5.703125 19.347656 5.6875 19.351562 C 5.074219 19.421875 5.121094 20.730469 5.757812 21.21875 C 6.207031 21.5625 6.621094 21.164062 6.542969 20.453125 " fill-opacity="1" fill-rule="nonzero"/><path fill="#ffffff" d="M 8.050781 22.0625 C 7.972656 21.632812 7.621094 21.019531 7.089844 20.996094 C 7.070312 20.996094 7.042969 21 7.023438 21 C 6.394531 21.101562 6.484375 22.316406 7.160156 22.808594 C 7.703125 23.207031 8.1875 22.800781 8.050781 22.0625 " fill-opacity="1" fill-rule="nonzero"/><path fill="#ffffff" d="M 3.710938 17.773438 C 3.980469 18.082031 4.304688 17.722656 4.355469 17.0625 C 4.386719 16.640625 4.285156 16.003906 3.957031 15.90625 C 3.945312 15.902344 3.929688 15.898438 3.917969 15.902344 C 3.460938 15.910156 3.308594 17.308594 3.710938 17.773438 " fill-opacity="1" fill-rule="nonzero"/><path fill="#ffffff" d="M 5.289062 17.914062 C 5.671875 18.347656 6.1875 17.957031 6.226562 17.207031 C 6.246094 16.78125 6.078125 16.160156 5.636719 16.109375 C 4.972656 16.136719 4.835938 17.398438 5.289062 17.914062 " fill-opacity="1" fill-rule="nonzero"/><path fill="#ffffff" d="M 7.441406 18.820312 C 7.425781 18.390625 7.175781 17.773438 6.667969 17.746094 C 5.921875 17.8125 5.894531 19.089844 6.457031 19.582031 C 6.925781 19.996094 7.472656 19.574219 7.441406 18.820312 " fill-opacity="1" fill-rule="nonzero"/><path fill="#ffffff" d="M 7.824219 21.136719 C 8.386719 21.621094 9.011719 21.191406 8.921875 20.382812 C 8.871094 19.953125 8.550781 19.34375 7.984375 19.339844 C 7.210938 19.4375 7.21875 20.617188 7.824219 21.136719 " fill-opacity="1" fill-rule="nonzero"/><path fill="#ffffff" d="M 5.304688 15.554688 C 5.367188 15.136719 5.285156 14.519531 4.917969 14.445312 C 4.332031 14.4375 4.09375 15.789062 4.46875 16.257812 C 4.765625 16.628906 5.203125 16.257812 5.304688 15.554688 " fill-opacity="1" fill-rule="nonzero"/><path fill="#ffffff" d="M 10.078125 28.3125 C 10.542969 28.429688 10.726562 28.140625 10.472656 27.691406 C 10.292969 27.375 9.8125 26.917969 9.304688 26.898438 C 9.238281 26.90625 9.164062 26.910156 9.097656 26.960938 C 8.703125 27.230469 9.355469 28.132812 10.078125 28.3125 " fill-opacity="1" fill-rule="nonzero"/><path fill="#ffffff" d="M 10.921875 26.378906 C 10.78125 26.027344 10.324219 25.535156 9.757812 25.539062 C 9.707031 25.542969 9.636719 25.550781 9.570312 25.585938 C 9.054688 25.828125 9.460938 26.765625 10.207031 27.058594 C 10.78125 27.285156 11.152344 26.933594 10.921875 26.378906 " fill-opacity="1" fill-rule="nonzero"/><path fill="#ffffff" d="M 11.605469 24.890625 C 11.492188 24.511719 11.058594 23.984375 10.445312 24.007812 C 10.421875 24.011719 10.390625 24.015625 10.371094 24.019531 C 9.695312 24.164062 9.820312 25.164062 10.566406 25.59375 C 11.226562 25.976562 11.808594 25.582031 11.605469 24.890625 " fill-opacity="1" fill-rule="nonzero"/><path fill="#ffffff" d="M 11.320312 22.320312 C 11.296875 22.324219 11.265625 22.328125 11.242188 22.335938 C 10.511719 22.511719 10.554688 23.597656 11.304688 24.042969 C 11.96875 24.433594 12.636719 23.980469 12.476562 23.242188 C 12.386719 22.832031 11.972656 22.273438 11.320312 22.320312 " fill-opacity="1" fill-rule="nonzero"/><path fill="#ffffff" d="M 10.191406 29.371094 C 10.507812 29.414062 10.546875 29.175781 10.28125 28.828125 C 10.0625 28.542969 9.554688 28.128906 9.113281 28.089844 C 9.054688 28.089844 8.992188 28.09375 8.941406 28.132812 C 8.628906 28.375 9.550781 29.289062 10.191406 29.371094 " fill-opacity="1" fill-rule="nonzero"/><path fill="#ffffff" d="M 10.535156 30.242188 C 10.714844 30.234375 10.644531 30.054688 10.367188 29.789062 C 10.125 29.558594 9.59375 29.167969 9.203125 29.105469 C 9.15625 29.105469 9.105469 29.101562 9.074219 29.132812 C 8.867188 29.328125 10.085938 30.25 10.535156 30.242188 " fill-opacity="1" fill-rule="nonzero"/><path fill="#ffffff" d="M 8.402344 25.828125 C 9 26.121094 9.386719 25.734375 9.15625 25.078125 C 9.015625 24.667969 8.554688 24.078125 7.972656 24.054688 C 7.933594 24.058594 7.875 24.0625 7.835938 24.074219 C 7.226562 24.257812 7.605469 25.4375 8.402344 25.828125 " fill-opacity="1" fill-rule="nonzero"/><path fill="#ffffff" d="M 8.296875 27.167969 C 8.765625 27.328125 8.957031 26.992188 8.703125 26.464844 C 8.519531 26.085938 8.03125 25.53125 7.511719 25.484375 C 7.464844 25.484375 7.398438 25.488281 7.34375 25.515625 C 6.851562 25.746094 7.519531 26.902344 8.296875 27.167969 " fill-opacity="1" fill-rule="nonzero"/><g clip-path="url(#9b1c97945f)"><path fill="#ffffff" d="M 3.070312 16.757812 C 3.109375 16.308594 3.074219 15.601562 2.878906 15.453125 C 2.863281 15.445312 2.84375 15.441406 2.828125 15.441406 C 2.496094 15.5 2.402344 17.261719 2.714844 17.5625 C 2.863281 17.703125 3.023438 17.34375 3.070312 16.757812 " fill-opacity="1" fill-rule="nonzero"/></g><g clip-path="url(#9a719ef515)"><path fill="#ffffff" d="M 2.414062 16.804688 C 2.40625 16.796875 2.394531 16.785156 2.382812 16.789062 C 2.183594 16.808594 2.273438 18.726562 2.484375 18.945312 C 2.574219 19.039062 2.632812 18.699219 2.621094 18.152344 C 2.609375 17.695312 2.539062 16.976562 2.414062 16.804688 " fill-opacity="1" fill-rule="nonzero"/></g><path fill="#ffffff" d="M 9.777344 23.527344 C 9.675781 23.117188 9.273438 22.542969 8.691406 22.542969 C 8.652344 22.550781 8.59375 22.554688 8.554688 22.570312 C 7.941406 22.773438 8.125 23.855469 8.84375 24.277344 C 9.441406 24.625 9.945312 24.21875 9.777344 23.527344 " fill-opacity="1" fill-rule="nonzero"/><path fill="#ffffff" d="M 9.511719 22.613281 C 10.136719 23.058594 10.785156 22.605469 10.652344 21.820312 C 10.578125 21.390625 10.195312 20.792969 9.582031 20.816406 C 9.558594 20.820312 9.527344 20.824219 9.503906 20.828125 C 8.808594 20.980469 8.8125 22.117188 9.511719 22.613281 " fill-opacity="1" fill-rule="nonzero"/><path fill="#ffffff" d="M 8.386719 28.253906 C 8.6875 28.316406 8.71875 28.058594 8.460938 27.671875 C 8.253906 27.355469 7.773438 26.878906 7.363281 26.816406 C 7.308594 26.8125 7.25 26.8125 7.203125 26.847656 C 6.921875 27.082031 7.804688 28.128906 8.386719 28.253906 " fill-opacity="1" fill-rule="nonzero"/><path fill="#ffffff" d="M 8.75 29.210938 C 8.90625 29.21875 8.828125 29.011719 8.5625 28.710938 C 8.3125 28.429688 7.808594 27.992188 7.472656 27.90625 C 7.429688 27.902344 7.386719 27.894531 7.363281 27.925781 C 7.203125 28.125 8.355469 29.195312 8.75 29.210938 " fill-opacity="1" fill-rule="nonzero"/><g clip-path="url(#cd84e26aa5)"><path fill="#ffffff" d="M 2.371094 14.992188 C 2.367188 14.988281 2.367188 14.984375 2.363281 14.980469 C 2.359375 14.980469 2.355469 14.980469 2.351562 14.980469 C 2.246094 15.15625 2.148438 16.753906 2.226562 16.945312 C 2.230469 16.945312 2.238281 16.945312 2.242188 16.945312 C 2.285156 16.863281 2.324219 16.464844 2.34375 16.234375 C 2.375 15.847656 2.410156 15.167969 2.371094 14.992188 " fill-opacity="1" fill-rule="nonzero"/></g><g clip-path="url(#6e0cea1b59)"><path fill="#ffffff" d="M 2.792969 14.910156 C 2.867188 14.503906 2.933594 13.863281 2.835938 13.714844 C 2.828125 13.710938 2.8125 13.703125 2.804688 13.703125 C 2.589844 13.726562 2.316406 15.4375 2.496094 15.628906 C 2.570312 15.710938 2.699219 15.402344 2.792969 14.910156 " fill-opacity="1" fill-rule="nonzero"/></g><g clip-path="url(#6207afae0e)"><path fill="#ffffff" d="M 3.515625 13.558594 C 3.632812 13.160156 3.722656 12.542969 3.574219 12.414062 C 3.566406 12.414062 3.558594 12.410156 3.550781 12.40625 C 3.253906 12.359375 2.816406 13.890625 3.023438 14.25 C 3.132812 14.433594 3.355469 14.117188 3.515625 13.558594 " fill-opacity="1" fill-rule="nonzero"/></g><path fill="#ffffff" d="M 3.824219 12.867188 C 3.949219 13.097656 4.265625 12.777344 4.484375 12.1875 C 4.628906 11.800781 4.742188 11.207031 4.546875 11.105469 C 4.179688 11.039062 3.597656 12.457031 3.824219 12.867188 " fill-opacity="1" fill-rule="nonzero"/><path fill="#ffffff" d="M 3.769531 15.285156 C 3.84375 14.875 3.839844 14.242188 3.605469 14.128906 C 3.59375 14.125 3.582031 14.121094 3.574219 14.121094 C 3.191406 14.101562 2.910156 15.570312 3.214844 15.992188 C 3.390625 16.238281 3.660156 15.894531 3.769531 15.285156 " fill-opacity="1" fill-rule="nonzero"/><path fill="#ffffff" d="M 4.003906 14.523438 C 4.207031 14.824219 4.582031 14.472656 4.746094 13.828125 C 4.847656 13.425781 4.867188 12.8125 4.582031 12.722656 C 4.070312 12.683594 3.714844 14.101562 4.003906 14.523438 " fill-opacity="1" fill-rule="nonzero"/><path fill="#ffffff" d="M 7.371094 15.496094 C 7.414062 15.078125 7.265625 14.476562 6.800781 14.453125 C 6.152344 14.511719 5.898438 15.671875 6.285156 16.191406 C 6.660156 16.691406 7.289062 16.289062 7.371094 15.496094 " fill-opacity="1" fill-rule="nonzero"/><path fill="#ffffff" d="M 8.5625 17.039062 C 8.566406 16.613281 8.335938 16.011719 7.804688 16.011719 C 7.0625 16.105469 6.910156 17.277344 7.414062 17.792969 C 7.882812 18.277344 8.550781 17.839844 8.5625 17.039062 " fill-opacity="1" fill-rule="nonzero"/><path fill="#ffffff" d="M 8.8125 19.351562 C 9.363281 19.8125 10.058594 19.347656 10.011719 18.546875 C 9.984375 18.113281 9.683594 17.519531 9.09375 17.539062 C 8.285156 17.667969 8.210938 18.851562 8.8125 19.351562 " fill-opacity="1" fill-rule="nonzero"/><path fill="#ffffff" d="M 10.628906 19.027344 C 9.820312 19.175781 9.765625 20.285156 10.363281 20.796875 C 10.980469 21.332031 11.78125 20.847656 11.679688 20.003906 C 11.628906 19.570312 11.269531 18.980469 10.628906 19.027344 " fill-opacity="1" fill-rule="nonzero"/><path fill="#ffffff" d="M 6.109375 12.878906 C 5.511719 12.90625 5.171875 14.136719 5.5 14.617188 C 5.789062 15.042969 6.328125 14.660156 6.476562 13.929688 C 6.558594 13.519531 6.5 12.925781 6.109375 12.878906 " fill-opacity="1" fill-rule="nonzero"/><path fill="#ffffff" d="M 5.015625 13.027344 C 5.226562 13.375 5.691406 13.023438 5.902344 12.351562 C 6.027344 11.957031 6.0625 11.371094 5.75 11.308594 C 5.210938 11.308594 4.75 12.585938 5.015625 13.027344 " fill-opacity="1" fill-rule="nonzero"/><path fill="#ffffff" d="M 6.578125 21.140625 L 6.574219 21.152344 Z M 6.578125 21.140625 " fill-opacity="1" fill-rule="nonzero"/><path fill="#ffffff" d="M 6.976562 22.765625 L 6.988281 22.777344 L 6.980469 22.765625 C 6.980469 22.765625 6.976562 22.765625 6.976562 22.765625 " fill-opacity="1" fill-rule="nonzero"/><path fill="#ffffff" d="M 12.015625 28.078125 C 12.609375 28.3125 13.023438 27.988281 12.789062 27.476562 C 12.652344 27.171875 12.210938 26.753906 11.660156 26.78125 C 11.601562 26.789062 11.53125 26.800781 11.464844 26.832031 C 11.003906 27.066406 11.335938 27.808594 12.015625 28.078125 " fill-opacity="1" fill-rule="nonzero"/><path fill="#ffffff" d="M 11.929688 29.277344 C 12.378906 29.363281 12.566406 29.09375 12.316406 28.707031 C 12.15625 28.460938 11.710938 28.066406 11.199219 28.074219 C 11.167969 28.074219 11.0625 28.082031 10.984375 28.140625 C 10.621094 28.398438 11.242188 29.144531 11.929688 29.277344 " fill-opacity="1" fill-rule="nonzero"/><path fill="#ffffff" d="M 9.691406 15.316406 C 9.714844 14.914062 9.515625 14.359375 9 14.375 C 8.371094 14.441406 8.066406 15.453125 8.507812 15.992188 C 8.929688 16.503906 9.648438 16.09375 9.691406 15.316406 " fill-opacity="1" fill-rule="nonzero"/><path fill="#ffffff" d="M 8.015625 12.898438 C 7.394531 12.980469 7.109375 14.03125 7.445312 14.5 C 7.78125 14.957031 8.40625 14.597656 8.527344 13.875 C 8.59375 13.476562 8.476562 12.910156 8.015625 12.898438 " fill-opacity="1" fill-rule="nonzero"/><g clip-path="url(#3163eed4dd)"><path fill="#ffffff" d="M 2.636719 13.699219 C 2.707031 13.664062 2.828125 13.277344 2.898438 13.050781 C 2.921875 12.960938 3.15625 12.167969 3.121094 11.976562 C 3.121094 11.972656 3.113281 11.964844 3.109375 11.960938 C 3.105469 11.960938 3.097656 11.964844 3.097656 11.964844 C 2.9375 12.074219 2.515625 13.664062 2.636719 13.699219 " fill-opacity="1" fill-rule="nonzero"/></g><path fill="#ffffff" d="M 13.457031 26.042969 C 13.347656 25.730469 12.960938 25.285156 12.359375 25.332031 C 12.3125 25.339844 12.25 25.351562 12.207031 25.367188 C 11.640625 25.566406 11.808594 26.386719 12.480469 26.710938 C 13.058594 26.992188 13.683594 26.683594 13.457031 26.042969 " fill-opacity="1" fill-rule="nonzero"/><path fill="#ffffff" d="M 11.011719 30.882812 C 11.097656 30.871094 10.910156 30.710938 10.703125 30.5625 C 10.472656 30.398438 9.953125 30.066406 9.648438 29.992188 C 9.613281 29.988281 9.582031 29.984375 9.574219 30.003906 C 9.515625 30.148438 10.78125 30.921875 11.011719 30.882812 " fill-opacity="1" fill-rule="nonzero"/><path fill="#ffffff" d="M 11.996094 30.238281 C 12.3125 30.257812 12.355469 30.0625 12.097656 29.769531 C 11.929688 29.578125 11.484375 29.214844 11.003906 29.199219 C 10.941406 29.203125 10.878906 29.207031 10.828125 29.246094 C 10.539062 29.464844 11.398438 30.195312 11.996094 30.238281 " fill-opacity="1" fill-rule="nonzero"/><path fill="#ffffff" d="M 6.695312 12.992188 C 6.929688 13.335938 7.46875 13.074219 7.648438 12.386719 C 7.714844 12.132812 7.789062 11.472656 7.339844 11.4375 C 6.773438 11.492188 6.410156 12.574219 6.695312 12.992188 " fill-opacity="1" fill-rule="nonzero"/><path fill="#ffffff" d="M 3.621094 11.800781 C 3.742188 11.507812 3.945312 10.914062 3.867188 10.777344 C 3.863281 10.773438 3.859375 10.769531 3.855469 10.769531 C 3.671875 10.707031 3.09375 12.152344 3.203125 12.398438 C 3.257812 12.515625 3.433594 12.265625 3.621094 11.800781 " fill-opacity="1" fill-rule="nonzero"/><path fill="#ffffff" d="M 10.269531 15.851562 C 9.507812 15.992188 9.4375 17.019531 9.859375 17.460938 C 10.316406 17.933594 11.121094 17.601562 11.097656 16.757812 C 11.085938 16.207031 10.714844 15.796875 10.269531 15.851562 " fill-opacity="1" fill-rule="nonzero"/><path fill="#ffffff" d="M 13.425781 21.40625 C 13.359375 21.027344 13.027344 20.492188 12.378906 20.554688 C 11.613281 20.675781 11.601562 21.738281 12.195312 22.179688 C 12.761719 22.601562 13.570312 22.222656 13.425781 21.40625 " fill-opacity="1" fill-rule="nonzero"/><path fill="#ffffff" d="M 13.164062 25.148438 C 13.789062 25.539062 14.480469 25.132812 14.320312 24.46875 C 14.207031 24.003906 13.703125 23.652344 13.242188 23.722656 C 13.21875 23.726562 13.1875 23.730469 13.164062 23.738281 C 12.53125 23.90625 12.527344 24.75 13.164062 25.148438 " fill-opacity="1" fill-rule="nonzero"/><path fill="#ffffff" d="M 5.691406 9.851562 C 5.292969 9.824219 4.746094 11.011719 4.898438 11.363281 C 5.007812 11.613281 5.371094 11.332031 5.613281 10.804688 C 5.765625 10.480469 5.917969 9.9375 5.691406 9.851562 " fill-opacity="1" fill-rule="nonzero"/><path fill="#ffffff" d="M 12.300781 31.007812 C 12.457031 30.992188 12.402344 30.847656 12.171875 30.65625 C 11.859375 30.390625 11.351562 30.152344 11.089844 30.140625 C 11.042969 30.140625 10.996094 30.144531 10.964844 30.171875 C 10.769531 30.355469 11.867188 31.042969 12.300781 31.007812 " fill-opacity="1" fill-rule="nonzero"/><path fill="#ffffff" d="M 6.988281 9.988281 C 6.542969 10.015625 6.039062 10.996094 6.242188 11.445312 C 6.402344 11.800781 6.894531 11.46875 7.113281 10.851562 C 7.234375 10.519531 7.277344 10.027344 6.988281 9.988281 " fill-opacity="1" fill-rule="nonzero"/><path fill="#ffffff" d="M 4.042969 11.09375 C 4.101562 11.253906 4.359375 10.972656 4.597656 10.5 C 4.757812 10.183594 4.945312 9.671875 4.839844 9.574219 C 4.597656 9.480469 3.921875 10.773438 4.042969 11.09375 " fill-opacity="1" fill-rule="nonzero"/><path fill="#ffffff" d="M 11.789062 17.300781 C 11.101562 17.40625 10.90625 18.410156 11.472656 18.902344 C 12.03125 19.382812 12.789062 18.929688 12.722656 18.152344 C 12.6875 17.765625 12.375 17.242188 11.789062 17.300781 " fill-opacity="1" fill-rule="nonzero"/><path fill="#ffffff" d="M 14.640625 28.472656 C 14.496094 28.128906 13.988281 27.84375 13.589844 27.890625 C 13.554688 27.898438 13.507812 27.90625 13.472656 27.921875 C 13.035156 28.078125 13.144531 28.667969 13.816406 28.953125 C 14.414062 29.207031 14.8125 28.890625 14.640625 28.472656 " fill-opacity="1" fill-rule="nonzero"/><path fill="#ffffff" d="M 14.15625 29.613281 C 14.007812 29.382812 13.5625 29.078125 13.121094 29.097656 C 13.039062 29.105469 12.972656 29.128906 12.925781 29.164062 C 12.609375 29.394531 13.089844 29.949219 13.714844 30.082031 C 14.195312 30.179688 14.351562 29.90625 14.15625 29.613281 " fill-opacity="1" fill-rule="nonzero"/><path fill="#ffffff" d="M 10.226562 12.753906 C 9.707031 12.820312 9.332031 13.699219 9.742188 14.203125 C 10.125 14.667969 10.785156 14.304688 10.851562 13.59375 C 10.886719 13.222656 10.6875 12.726562 10.226562 12.753906 " fill-opacity="1" fill-rule="nonzero"/><path fill="#ffffff" d="M 9.722656 12.195312 C 9.804688 11.734375 9.582031 11.335938 9.261719 11.363281 C 8.71875 11.453125 8.378906 12.355469 8.714844 12.804688 C 9.039062 13.234375 9.617188 12.796875 9.722656 12.195312 " fill-opacity="1" fill-rule="nonzero"/><path fill="#ffffff" d="M 4.046875 10.121094 C 4.117188 9.996094 4.449219 9.367188 4.4375 9.210938 C 4.433594 9.210938 4.433594 9.203125 4.429688 9.203125 C 4.328125 9.125 3.625 10.457031 3.679688 10.628906 C 3.703125 10.695312 3.84375 10.5 4.046875 10.121094 " fill-opacity="1" fill-rule="nonzero"/><path fill="#ffffff" d="M 7.96875 11.359375 C 8.171875 11.714844 8.71875 11.441406 8.890625 10.769531 C 8.964844 10.464844 8.953125 10.007812 8.605469 10.003906 C 8.105469 10.070312 7.746094 10.972656 7.96875 11.359375 " fill-opacity="1" fill-rule="nonzero"/><path fill="#ffffff" d="M 11.476562 14.148438 C 10.871094 14.242188 10.628906 15.183594 11.09375 15.628906 C 11.546875 16.0625 12.246094 15.632812 12.230469 14.933594 C 12.222656 14.605469 12.011719 14.097656 11.476562 14.148438 " fill-opacity="1" fill-rule="nonzero"/><path fill="#ffffff" d="M 15.300781 27.085938 C 15.15625 26.714844 14.707031 26.460938 14.300781 26.523438 C 14.261719 26.53125 14.207031 26.542969 14.167969 26.554688 C 13.65625 26.738281 13.769531 27.40625 14.359375 27.6875 C 14.949219 27.96875 15.507812 27.617188 15.300781 27.085938 " fill-opacity="1" fill-rule="nonzero"/><path fill="#ffffff" d="M 13.921875 30.574219 C 13.671875 30.316406 13.21875 30.117188 12.917969 30.132812 C 12.867188 30.140625 12.78125 30.148438 12.734375 30.199219 C 12.53125 30.410156 13.285156 30.941406 13.804688 30.957031 C 14.097656 30.964844 14.144531 30.804688 13.921875 30.574219 " fill-opacity="1" fill-rule="nonzero"/><path fill="#ffffff" d="M 6.957031 8.597656 C 6.625 8.570312 6.007812 9.558594 6.132812 9.921875 C 6.21875 10.175781 6.601562 9.96875 6.890625 9.398438 C 7.019531 9.144531 7.195312 8.652344 6.957031 8.597656 " fill-opacity="1" fill-rule="nonzero"/><path fill="#ffffff" d="M 12.78125 31.589844 C 12.855469 31.574219 12.742188 31.476562 12.484375 31.328125 C 12.421875 31.292969 11.851562 30.96875 11.492188 30.917969 C 11.453125 30.914062 11.417969 30.914062 11.40625 30.929688 C 11.324219 31.054688 12.542969 31.636719 12.78125 31.589844 " fill-opacity="1" fill-rule="nonzero"/><path fill="#ffffff" d="M 16.179688 25.601562 C 16.105469 25.308594 15.785156 24.90625 15.191406 24.984375 C 15.191406 24.984375 15.191406 24.984375 15.1875 24.984375 C 15.097656 25.003906 14.910156 25.046875 14.78125 25.222656 C 14.476562 25.632812 14.890625 26.425781 15.6875 26.320312 C 15.691406 26.320312 15.691406 26.320312 15.691406 26.320312 C 16.300781 26.179688 16.191406 25.660156 16.179688 25.601562 " fill-opacity="1" fill-rule="nonzero"/><path fill="#ffffff" d="M 15.300781 22.742188 C 15.242188 22.40625 14.910156 21.90625 14.273438 21.984375 C 13.53125 22.15625 13.535156 23.066406 14.113281 23.449219 C 14.707031 23.839844 15.417969 23.414062 15.300781 22.742188 " fill-opacity="1" fill-rule="nonzero"/><path fill="#ffffff" d="M 13.515625 18.734375 C 12.828125 18.859375 12.683594 19.847656 13.285156 20.285156 C 13.863281 20.707031 14.59375 20.234375 14.484375 19.503906 C 14.421875 19.082031 14.058594 18.664062 13.515625 18.734375 " fill-opacity="1" fill-rule="nonzero"/><path fill="#ffffff" d="M 3.316406 11.273438 C 3.414062 11.035156 3.652344 10.460938 3.679688 10.316406 C 3.683594 10.3125 3.679688 10.308594 3.683594 10.304688 C 3.679688 10.304688 3.675781 10.304688 3.671875 10.304688 C 3.574219 10.425781 3.019531 11.738281 3.066406 11.820312 C 3.082031 11.800781 3.117188 11.75 3.316406 11.273438 " fill-opacity="1" fill-rule="nonzero"/><path fill="#ffffff" d="M 11.335938 31.164062 C 10.683594 30.824219 10.496094 30.742188 10.398438 30.707031 C 10.390625 30.703125 10.375 30.699219 10.367188 30.699219 C 10.367188 30.699219 10.367188 30.703125 10.363281 30.707031 C 10.5 30.835938 11.644531 31.386719 11.777344 31.40625 C 11.773438 31.398438 11.769531 31.386719 11.335938 31.164062 " fill-opacity="1" fill-rule="nonzero"/><path fill="#ffffff" d="M 5.113281 9.753906 C 5.160156 9.925781 5.425781 9.757812 5.730469 9.246094 C 5.75 9.214844 6.160156 8.519531 5.984375 8.410156 C 5.679688 8.363281 5.035156 9.480469 5.113281 9.753906 " fill-opacity="1" fill-rule="nonzero"/><path fill="#ffffff" d="M 14.042969 31.628906 C 14.054688 31.625 14.066406 31.625 14.078125 31.625 C 14.222656 31.609375 14.183594 31.5 13.976562 31.351562 C 13.683594 31.140625 13.242188 30.972656 12.992188 30.976562 C 12.945312 30.980469 12.902344 30.984375 12.871094 31.007812 C 12.714844 31.136719 13.519531 31.617188 14.042969 31.628906 " fill-opacity="1" fill-rule="nonzero"/><path fill="#ffffff" d="M 8.28125 8.660156 C 8.230469 8.664062 8.15625 8.671875 8.027344 8.777344 C 7.570312 9.148438 7.3125 10.027344 7.746094 10.058594 C 8.105469 10.023438 8.335938 9.492188 8.363281 9.433594 C 8.519531 9.058594 8.523438 8.660156 8.28125 8.660156 " fill-opacity="1" fill-rule="nonzero"/><path fill="#ffffff" d="M 5.414062 8.109375 C 5.300781 8.082031 4.445312 9.210938 4.558594 9.445312 C 4.660156 9.503906 5.003906 8.980469 5.042969 8.917969 C 5.164062 8.730469 5.472656 8.21875 5.421875 8.113281 C 5.421875 8.113281 5.417969 8.109375 5.414062 8.109375 " fill-opacity="1" fill-rule="nonzero"/><path fill="#ffffff" d="M 12.980469 15.53125 C 12.246094 15.703125 12.230469 16.625 12.664062 16.996094 C 13.117188 17.378906 13.878906 17.03125 13.828125 16.296875 C 13.792969 15.800781 13.414062 15.457031 12.980469 15.53125 " fill-opacity="1" fill-rule="nonzero"/><path fill="#ffffff" d="M 14.691406 16.886719 C 14.082031 17.046875 13.902344 17.832031 14.382812 18.265625 C 14.933594 18.761719 15.644531 18.265625 15.589844 17.617188 C 15.558594 17.261719 15.230469 16.8125 14.691406 16.886719 " fill-opacity="1" fill-rule="nonzero"/><path fill="#ffffff" d="M 16.363281 20.855469 C 16.300781 20.390625 15.828125 20.035156 15.390625 20.121094 C 14.761719 20.285156 14.613281 21.105469 15.132812 21.53125 C 15.746094 22.039062 16.453125 21.527344 16.363281 20.855469 " fill-opacity="1" fill-rule="nonzero"/><path fill="#ffffff" d="M 17.179688 23.910156 C 17.105469 23.507812 16.640625 23.203125 16.226562 23.289062 C 15.609375 23.449219 15.488281 24.175781 16.019531 24.546875 C 16.628906 24.964844 17.289062 24.496094 17.179688 23.910156 " fill-opacity="1" fill-rule="nonzero"/><path fill="#ffffff" d="M 6.359375 8.449219 C 6.390625 8.664062 6.742188 8.378906 7.011719 7.996094 C 7.203125 7.71875 7.398438 7.304688 7.265625 7.253906 C 6.984375 7.242188 6.316406 8.125 6.359375 8.449219 " fill-opacity="1" fill-rule="nonzero"/><path fill="#ffffff" d="M 16.40625 29.304688 C 16.292969 29.027344 15.84375 28.800781 15.496094 28.851562 C 15.464844 28.859375 15.421875 28.867188 15.390625 28.878906 C 15.023438 29.011719 15.074219 29.46875 15.605469 29.699219 C 16.144531 29.933594 16.550781 29.664062 16.40625 29.304688 " fill-opacity="1" fill-rule="nonzero"/><g clip-path="url(#75fc2efb5e)"><path fill="#ffffff" d="M 12.179688 31.511719 C 12.171875 31.507812 12.15625 31.507812 12.148438 31.507812 C 12.144531 31.507812 12.144531 31.511719 12.144531 31.515625 C 12.257812 31.628906 13.269531 31.980469 13.496094 32.015625 C 13.5 32.015625 13.503906 32.011719 13.503906 32.011719 C 13.464844 31.984375 13.332031 31.929688 13.105469 31.839844 C 13.035156 31.808594 12.40625 31.5625 12.179688 31.511719 " fill-opacity="1" fill-rule="nonzero"/></g><path fill="#ffffff" d="M 7.484375 8.539062 C 7.558594 8.773438 7.929688 8.527344 8.195312 8.066406 C 8.335938 7.816406 8.488281 7.40625 8.28125 7.371094 C 7.949219 7.394531 7.382812 8.222656 7.484375 8.539062 " fill-opacity="1" fill-rule="nonzero"/><g clip-path="url(#614bb17827)"><path fill="#ffffff" d="M 14.550781 32.105469 C 14.605469 32.074219 14.367188 31.960938 14.289062 31.925781 C 14.003906 31.792969 13.566406 31.640625 13.359375 31.632812 C 13.328125 31.632812 13.292969 31.632812 13.285156 31.652344 C 13.210938 31.769531 14.394531 32.195312 14.550781 32.105469 " fill-opacity="1" fill-rule="nonzero"/></g><path fill="#ffffff" d="M 11.429688 11.160156 C 10.917969 11.273438 10.664062 12.058594 11.015625 12.449219 C 11.351562 12.832031 11.945312 12.476562 11.988281 11.867188 C 12.019531 11.449219 11.753906 11.113281 11.429688 11.160156 " fill-opacity="1" fill-rule="nonzero"/><path fill="#ffffff" d="M 10.484375 9.867188 C 10.03125 9.960938 9.722656 10.707031 9.980469 11.097656 C 10.234375 11.484375 10.789062 11.164062 10.890625 10.574219 C 10.960938 10.171875 10.769531 9.835938 10.484375 9.867188 " fill-opacity="1" fill-rule="nonzero"/><path fill="#ffffff" d="M 15.453125 30.734375 C 15.902344 30.828125 16.078125 30.601562 15.910156 30.351562 C 15.75 30.113281 15.320312 29.929688 15.011719 29.964844 C 14.953125 29.976562 14.898438 29.984375 14.839844 30.027344 C 14.566406 30.210938 14.925781 30.621094 15.453125 30.734375 " fill-opacity="1" fill-rule="nonzero"/><path fill="#ffffff" d="M 5.652344 8.21875 C 5.671875 8.335938 5.910156 8.140625 6.195312 7.773438 C 6.199219 7.769531 6.675781 7.148438 6.585938 7.050781 C 6.398438 6.996094 5.613281 7.980469 5.652344 8.21875 " fill-opacity="1" fill-rule="nonzero"/><path fill="#ffffff" d="M 15.550781 31.515625 C 15.804688 31.511719 15.851562 31.382812 15.660156 31.207031 C 15.511719 31.070312 15.15625 30.871094 14.792969 30.894531 C 14.75 30.898438 14.671875 30.910156 14.628906 30.953125 C 14.449219 31.132812 15.085938 31.519531 15.550781 31.515625 " fill-opacity="1" fill-rule="nonzero"/><path fill="#ffffff" d="M 9.855469 8.609375 C 9.457031 8.648438 9.078125 9.441406 9.285156 9.785156 C 9.457031 10.070312 9.933594 9.832031 10.089844 9.273438 C 10.164062 9.003906 10.164062 8.601562 9.855469 8.609375 " fill-opacity="1" fill-rule="nonzero"/><path fill="#ffffff" d="M 12.664062 12.46875 C 12.132812 12.566406 11.914062 13.378906 12.320312 13.769531 C 12.683594 14.125 13.355469 13.8125 13.339844 13.148438 C 13.328125 12.84375 13.144531 12.414062 12.664062 12.46875 " fill-opacity="1" fill-rule="nonzero"/><path fill="#ffffff" d="M 17.09375 28.023438 C 17.019531 27.8125 16.714844 27.5 16.214844 27.566406 C 16.179688 27.570312 16.125 27.585938 16.074219 27.605469 C 15.652344 27.785156 15.734375 28.308594 16.214844 28.53125 C 16.722656 28.765625 17.25 28.460938 17.09375 28.023438 " fill-opacity="1" fill-rule="nonzero"/><path fill="#ffffff" d="M 4.773438 8.519531 C 4.972656 8.226562 5.222656 7.851562 5.253906 7.742188 C 5.253906 7.738281 5.253906 7.734375 5.25 7.730469 C 5.132812 7.769531 4.421875 8.839844 4.449219 8.933594 C 4.460938 8.929688 4.496094 8.917969 4.773438 8.519531 " fill-opacity="1" fill-rule="nonzero"/><path fill="#ffffff" d="M 5.773438 7.453125 C 5.777344 7.449219 6.261719 6.863281 6.265625 6.75 C 6.261719 6.75 6.261719 6.746094 6.257812 6.746094 C 6.121094 6.738281 5.289062 7.765625 5.359375 7.855469 C 5.421875 7.859375 5.644531 7.605469 5.773438 7.453125 " fill-opacity="1" fill-rule="nonzero"/><g clip-path="url(#1efb63d50a)"><path fill="#ffffff" d="M 14.03125 32.109375 C 14 32.105469 14 32.105469 13.992188 32.113281 C 14.066406 32.1875 15.132812 32.449219 15.230469 32.421875 C 15.21875 32.414062 15.195312 32.402344 14.894531 32.316406 C 14.460938 32.195312 14.171875 32.125 14.03125 32.109375 " fill-opacity="1" fill-rule="nonzero"/></g><path fill="#ffffff" d="M 16.558594 18.234375 C 15.972656 18.371094 15.824219 19.15625 16.304688 19.550781 C 16.824219 19.972656 17.535156 19.550781 17.441406 18.878906 C 17.394531 18.558594 17.089844 18.144531 16.558594 18.234375 " fill-opacity="1" fill-rule="nonzero"/><path fill="#ffffff" d="M 17.527344 27.222656 C 17.527344 27.222656 17.527344 27.21875 17.527344 27.21875 C 17.527344 27.21875 17.527344 27.21875 17.53125 27.21875 C 18.074219 27.085938 17.988281 26.644531 17.976562 26.597656 C 17.921875 26.351562 17.644531 26.023438 17.121094 26.105469 C 16.914062 26.148438 16.800781 26.257812 16.753906 26.320312 C 16.453125 26.707031 16.871094 27.320312 17.527344 27.222656 " fill-opacity="1" fill-rule="nonzero"/><path fill="#ffffff" d="M 9.554688 7.378906 C 9.234375 7.402344 8.792969 8.117188 8.898438 8.441406 C 8.988281 8.714844 9.398438 8.519531 9.621094 8 C 9.722656 7.765625 9.792969 7.386719 9.554688 7.378906 " fill-opacity="1" fill-rule="nonzero"/><path fill="#ffffff" d="M 6.929688 7.03125 C 6.925781 7.167969 7.191406 6.980469 7.5 6.632812 C 7.65625 6.457031 7.957031 6.070312 7.882812 6.011719 C 7.683594 5.992188 6.9375 6.789062 6.929688 7.03125 " fill-opacity="1" fill-rule="nonzero"/><g clip-path="url(#13a13cbc45)"><path fill="#ffffff" d="M 15.8125 32.070312 C 15.902344 32.042969 15.847656 31.957031 15.671875 31.859375 C 15.523438 31.773438 15.160156 31.613281 14.855469 31.621094 C 14.851562 31.621094 14.851562 31.621094 14.851562 31.621094 C 14.816406 31.625 14.753906 31.632812 14.734375 31.664062 C 14.632812 31.816406 15.527344 32.15625 15.8125 32.070312 " fill-opacity="1" fill-rule="nonzero"/></g><path fill="#ffffff" d="M 14.152344 13.773438 C 14.152344 13.773438 14.152344 13.773438 14.148438 13.773438 C 13.496094 13.949219 13.5 14.777344 13.898438 15.082031 C 14.347656 15.425781 14.964844 15.023438 14.910156 14.421875 C 14.886719 14.132812 14.65625 13.699219 14.152344 13.773438 " fill-opacity="1" fill-rule="nonzero"/><path fill="#ffffff" d="M 13.316406 31.984375 L 13.359375 31.996094 C 13.328125 31.988281 13.292969 31.980469 13.265625 31.96875 L 13.316406 31.984375 " fill-opacity="1" fill-rule="nonzero"/><path fill="#ffffff" d="M 18.246094 22.070312 C 18.167969 21.65625 17.757812 21.386719 17.355469 21.476562 C 16.695312 21.660156 16.667969 22.445312 17.160156 22.761719 C 17.691406 23.105469 18.359375 22.675781 18.246094 22.070312 " fill-opacity="1" fill-rule="nonzero"/><path fill="#ffffff" d="M 7.742188 7.183594 C 7.777344 7.347656 8.089844 7.132812 8.375 6.753906 C 8.511719 6.574219 8.746094 6.1875 8.609375 6.152344 C 8.394531 6.132812 7.6875 6.902344 7.742188 7.183594 " fill-opacity="1" fill-rule="nonzero"/><path fill="#ffffff" d="M 19.003906 25.003906 C 18.964844 24.691406 18.613281 24.398438 18.167969 24.476562 C 17.652344 24.617188 17.503906 25.1875 17.898438 25.503906 C 18.402344 25.910156 19.0625 25.515625 19.003906 25.003906 " fill-opacity="1" fill-rule="nonzero"/><g clip-path="url(#e616f0f9ce)"><path fill="#ffffff" d="M 16.222656 32.445312 C 16.265625 32.421875 16.074219 32.351562 16.011719 32.332031 C 15.765625 32.246094 15.371094 32.152344 15.203125 32.152344 C 15.175781 32.15625 15.136719 32.15625 15.136719 32.175781 C 15.136719 32.273438 16.101562 32.511719 16.222656 32.445312 " fill-opacity="1" fill-rule="nonzero"/></g><path fill="#ffffff" d="M 15.855469 15.054688 C 15.851562 15.054688 15.851562 15.054688 15.851562 15.054688 C 15.28125 15.21875 15.164062 16 15.65625 16.335938 C 16.171875 16.691406 16.738281 16.203125 16.65625 15.648438 C 16.613281 15.351562 16.308594 14.980469 15.855469 15.054688 " fill-opacity="1" fill-rule="nonzero"/><path fill="#ffffff" d="M 8.867188 7.1875 C 8.925781 7.375 9.253906 7.15625 9.492188 6.773438 C 9.601562 6.597656 9.765625 6.222656 9.589844 6.203125 C 9.296875 6.238281 8.792969 6.929688 8.867188 7.1875 " fill-opacity="1" fill-rule="nonzero"/><path fill="#ffffff" d="M 6.5 6.773438 C 6.5 6.773438 6.5 6.773438 6.5 6.777344 C 6.570312 6.804688 6.894531 6.480469 6.992188 6.378906 C 7.011719 6.359375 7.472656 5.882812 7.449219 5.800781 C 7.445312 5.800781 7.445312 5.796875 7.441406 5.796875 C 7.347656 5.78125 6.433594 6.613281 6.5 6.773438 " fill-opacity="1" fill-rule="nonzero"/><path fill="#ffffff" d="M 18.035156 29.984375 C 17.957031 29.824219 17.683594 29.617188 17.304688 29.671875 C 17.253906 29.679688 17.199219 29.699219 17.160156 29.71875 C 16.878906 29.871094 17 30.210938 17.386719 30.347656 C 17.796875 30.492188 18.171875 30.28125 18.035156 29.984375 " fill-opacity="1" fill-rule="nonzero"/><path fill="#ffffff" d="M 12.230469 10.714844 C 12.53125 11.039062 13.039062 10.703125 13.042969 10.179688 C 13.046875 9.929688 12.898438 9.589844 12.5625 9.628906 C 12.148438 9.707031 11.9375 10.394531 12.230469 10.714844 " fill-opacity="1" fill-rule="nonzero"/><path fill="#ffffff" d="M 17.113281 31.25 C 17.464844 31.3125 17.675781 31.164062 17.535156 30.953125 C 17.410156 30.765625 17.066406 30.640625 16.804688 30.675781 C 16.761719 30.683594 16.691406 30.699219 16.636719 30.742188 C 16.449219 30.894531 16.714844 31.179688 17.113281 31.25 " fill-opacity="1" fill-rule="nonzero"/><path fill="#ffffff" d="M 11.636719 8.445312 C 11.21875 8.535156 11.023438 9.230469 11.253906 9.496094 C 11.46875 9.742188 11.914062 9.496094 11.980469 8.996094 C 12.019531 8.703125 11.898438 8.40625 11.636719 8.445312 " fill-opacity="1" fill-rule="nonzero"/><path fill="#ffffff" d="M 18.753906 28.8125 C 18.695312 28.640625 18.457031 28.40625 18.039062 28.476562 C 18.019531 28.480469 17.976562 28.492188 17.976562 28.492188 C 17.550781 28.621094 17.601562 29.050781 17.953125 29.234375 C 18.378906 29.457031 18.882812 29.195312 18.753906 28.8125 " fill-opacity="1" fill-rule="nonzero"/><path fill="#ffffff" d="M 11.027344 7.285156 C 10.707031 7.328125 10.394531 7.980469 10.5625 8.253906 C 10.699219 8.484375 11.089844 8.285156 11.21875 7.832031 C 11.285156 7.605469 11.285156 7.273438 11.027344 7.285156 " fill-opacity="1" fill-rule="nonzero"/><path fill="#ffffff" d="M 13.78125 10.84375 C 13.25 10.980469 13.21875 11.6875 13.527344 11.953125 C 13.84375 12.226562 14.390625 11.953125 14.363281 11.40625 C 14.347656 11.035156 14.085938 10.785156 13.78125 10.84375 " fill-opacity="1" fill-rule="nonzero"/><path fill="#ffffff" d="M 17.171875 31.921875 C 17.375 31.90625 17.414062 31.8125 17.269531 31.695312 C 17.121094 31.566406 16.816406 31.457031 16.566406 31.484375 C 16.53125 31.492188 16.464844 31.5 16.429688 31.535156 C 16.28125 31.675781 16.804688 31.945312 17.171875 31.921875 " fill-opacity="1" fill-rule="nonzero"/><g clip-path="url(#a033e81fb9)"><path fill="#ffffff" d="M 17.378906 32.363281 C 17.453125 32.339844 17.414062 32.289062 17.28125 32.226562 C 17.136719 32.160156 16.84375 32.070312 16.605469 32.085938 C 16.570312 32.085938 16.523438 32.097656 16.511719 32.117188 C 16.441406 32.226562 17.164062 32.425781 17.378906 32.363281 " fill-opacity="1" fill-rule="nonzero"/></g><path fill="#ffffff" d="M 9.171875 5.964844 C 9.195312 6.078125 9.457031 5.90625 9.707031 5.609375 C 9.902344 5.375 10.046875 5.117188 9.949219 5.109375 C 9.71875 5.128906 9.128906 5.777344 9.171875 5.964844 " fill-opacity="1" fill-rule="nonzero"/><g clip-path="url(#bf4a2a26f6)"><path fill="#ffffff" d="M 15.859375 32.492188 C 15.832031 32.492188 15.832031 32.492188 15.824219 32.5 C 15.894531 32.542969 16.8125 32.664062 16.878906 32.640625 C 16.855469 32.632812 16.824219 32.628906 16.578125 32.589844 C 16.195312 32.53125 15.984375 32.5 15.859375 32.492188 " fill-opacity="1" fill-rule="nonzero"/></g><path fill="#ffffff" d="M 10.796875 6.671875 C 10.910156 6.425781 10.921875 6.15625 10.757812 6.167969 C 10.46875 6.21875 10.109375 6.824219 10.222656 7.0625 C 10.3125 7.257812 10.632812 7.042969 10.796875 6.671875 " fill-opacity="1" fill-rule="nonzero"/><path fill="#ffffff" d="M 7.8125 5.707031 C 7.800781 5.789062 8.015625 5.648438 8.3125 5.386719 C 8.316406 5.382812 8.808594 4.941406 8.773438 4.882812 C 8.640625 4.859375 7.84375 5.546875 7.8125 5.707031 " fill-opacity="1" fill-rule="nonzero"/><path fill="#ffffff" d="M 18.519531 19.5625 C 17.898438 19.75 17.921875 20.464844 18.289062 20.761719 C 18.71875 21.105469 19.421875 20.789062 19.332031 20.144531 C 19.273438 19.726562 18.90625 19.464844 18.519531 19.5625 " fill-opacity="1" fill-rule="nonzero"/><path fill="#ffffff" d="M 9.242188 5.035156 C 9.050781 5.03125 8.328125 5.71875 8.339844 5.890625 C 8.347656 5.980469 8.5625 5.867188 8.894531 5.53125 C 8.910156 5.511719 9.335938 5.078125 9.242188 5.035156 " fill-opacity="1" fill-rule="nonzero"/><path fill="#ffffff" d="M 19.3125 22.722656 C 18.753906 22.863281 18.6875 23.523438 19.082031 23.800781 C 19.523438 24.113281 20.160156 23.742188 20.085938 23.214844 C 20.050781 22.972656 19.808594 22.621094 19.3125 22.722656 " fill-opacity="1" fill-rule="nonzero"/><path fill="#ffffff" d="M 6.277344 6.390625 C 6.28125 6.386719 6.28125 6.382812 6.28125 6.378906 C 6.191406 6.421875 5.46875 7.273438 5.46875 7.339844 C 5.488281 7.328125 5.542969 7.273438 5.777344 6.996094 C 6.164062 6.546875 6.246094 6.441406 6.277344 6.390625 " fill-opacity="1" fill-rule="nonzero"/><path fill="#ffffff" d="M 17.714844 16.34375 C 17.089844 16.53125 17.140625 17.277344 17.542969 17.546875 C 18.007812 17.855469 18.589844 17.460938 18.5 16.894531 C 18.4375 16.507812 18.078125 16.253906 17.714844 16.34375 " fill-opacity="1" fill-rule="nonzero"/><path fill="#ffffff" d="M 15.257812 12.050781 C 14.734375 12.199219 14.691406 12.890625 15.070312 13.167969 C 15.46875 13.457031 15.992188 13.089844 15.914062 12.570312 C 15.882812 12.332031 15.671875 11.980469 15.257812 12.050781 " fill-opacity="1" fill-rule="nonzero"/><path fill="#ffffff" d="M 19.660156 27.472656 C 19.613281 27.238281 19.351562 27.023438 18.960938 27.09375 C 18.480469 27.207031 18.429688 27.683594 18.757812 27.914062 C 19.15625 28.1875 19.746094 27.898438 19.660156 27.472656 " fill-opacity="1" fill-rule="nonzero"/><path fill="#ffffff" d="M 6.804688 6.058594 C 6.808594 6.054688 7.285156 5.597656 7.316406 5.515625 C 7.316406 5.515625 7.316406 5.515625 7.316406 5.511719 C 7.210938 5.507812 6.402344 6.296875 6.417969 6.382812 C 6.457031 6.386719 6.675781 6.183594 6.804688 6.058594 " fill-opacity="1" fill-rule="nonzero"/><path fill="#ffffff" d="M 16.8125 14.347656 C 17.261719 14.640625 17.726562 14.21875 17.640625 13.75 C 17.597656 13.507812 17.347656 13.183594 16.945312 13.257812 C 16.511719 13.367188 16.355469 14.050781 16.8125 14.347656 " fill-opacity="1" fill-rule="nonzero"/><path fill="#ffffff" d="M 20.699219 25.9375 C 20.667969 25.691406 20.402344 25.472656 20.027344 25.546875 C 19.625 25.648438 19.417969 26.136719 19.78125 26.410156 C 20.199219 26.71875 20.757812 26.359375 20.699219 25.9375 " fill-opacity="1" fill-rule="nonzero"/><g clip-path="url(#3b77714e26)"><path fill="#ffffff" d="M 16.945312 32.480469 C 16.90625 32.484375 16.894531 32.488281 16.890625 32.496094 C 16.929688 32.570312 17.667969 32.652344 17.761719 32.613281 C 17.761719 32.613281 17.761719 32.609375 17.761719 32.609375 C 17.753906 32.601562 17.734375 32.589844 17.554688 32.550781 C 17.488281 32.539062 17.140625 32.472656 16.945312 32.480469 " fill-opacity="1" fill-rule="nonzero"/></g><path fill="#ffffff" d="M 10.21875 5.890625 C 10.246094 6.042969 10.496094 5.90625 10.71875 5.566406 C 10.859375 5.347656 10.9375 5.117188 10.820312 5.121094 C 10.605469 5.152344 10.183594 5.695312 10.21875 5.890625 " fill-opacity="1" fill-rule="nonzero"/><path fill="#ffffff" d="M 8.019531 5.152344 C 8.203125 5.003906 8.511719 4.75 8.527344 4.691406 C 8.46875 4.640625 7.625 5.320312 7.613281 5.425781 C 7.621094 5.433594 7.644531 5.457031 8.019531 5.152344 " fill-opacity="1" fill-rule="nonzero"/><path fill="#ffffff" d="M 13.351562 9.046875 C 13.582031 9.265625 13.980469 9.046875 13.96875 8.613281 C 13.964844 8.445312 13.875 8.136719 13.570312 8.179688 C 13.21875 8.253906 13.125 8.828125 13.351562 9.046875 " fill-opacity="1" fill-rule="nonzero"/><path fill="#ffffff" d="M 18.957031 30.347656 C 18.933594 30.355469 18.902344 30.359375 18.882812 30.371094 C 18.609375 30.46875 18.667969 30.71875 18.914062 30.828125 C 19.191406 30.957031 19.585938 30.824219 19.496094 30.574219 C 19.453125 30.453125 19.273438 30.296875 18.957031 30.347656 " fill-opacity="1" fill-rule="nonzero"/><path fill="#ffffff" d="M 12.945312 7.535156 C 12.972656 7.292969 12.871094 7.066406 12.664062 7.101562 C 12.34375 7.179688 12.207031 7.714844 12.386719 7.925781 C 12.558594 8.121094 12.90625 7.929688 12.945312 7.535156 " fill-opacity="1" fill-rule="nonzero"/><path fill="#ffffff" d="M 18.59375 31.632812 C 18.855469 31.683594 19.085938 31.585938 18.972656 31.414062 C 18.882812 31.277344 18.644531 31.199219 18.433594 31.234375 C 18.398438 31.242188 18.34375 31.253906 18.296875 31.285156 C 18.152344 31.390625 18.316406 31.582031 18.59375 31.632812 " fill-opacity="1" fill-rule="nonzero"/><path fill="#ffffff" d="M 20.242188 29.503906 C 20.210938 29.371094 20.039062 29.195312 19.703125 29.257812 C 19.308594 29.363281 19.328125 29.6875 19.566406 29.828125 C 19.878906 30.007812 20.3125 29.800781 20.242188 29.503906 " fill-opacity="1" fill-rule="nonzero"/><path fill="#ffffff" d="M 19.671875 17.617188 C 19.128906 17.765625 19.15625 18.4375 19.496094 18.691406 C 19.878906 18.976562 20.496094 18.652344 20.386719 18.089844 C 20.347656 17.878906 20.144531 17.507812 19.671875 17.617188 " fill-opacity="1" fill-rule="nonzero"/><path fill="#ffffff" d="M 10.617188 4.121094 C 10.453125 4.128906 9.816406 4.671875 9.8125 4.800781 C 9.8125 4.867188 9.984375 4.78125 10.273438 4.523438 C 10.28125 4.519531 10.691406 4.148438 10.617188 4.121094 " fill-opacity="1" fill-rule="nonzero"/><path fill="#ffffff" d="M 9.269531 4.703125 C 9.261719 4.757812 9.445312 4.648438 9.726562 4.433594 C 9.769531 4.402344 10.164062 4.097656 10.167969 4.039062 C 10.167969 4.035156 10.164062 4.035156 10.164062 4.035156 C 10.039062 4.027344 9.277344 4.59375 9.269531 4.703125 " fill-opacity="1" fill-rule="nonzero"/><path fill="#ffffff" d="M 20.285156 21.882812 C 20.65625 22.152344 21.269531 21.855469 21.195312 21.3125 C 21.164062 21.105469 20.980469 20.738281 20.496094 20.847656 C 19.902344 21.039062 19.992188 21.667969 20.285156 21.882812 " fill-opacity="1" fill-rule="nonzero"/><path fill="#ffffff" d="M 14.613281 10.171875 C 14.914062 10.417969 15.320312 10.125 15.265625 9.703125 C 15.242188 9.511719 15.085938 9.230469 14.773438 9.28125 C 14.421875 9.363281 14.320312 9.929688 14.613281 10.171875 " fill-opacity="1" fill-rule="nonzero"/><path fill="#ffffff" d="M 21.816406 24.222656 C 21.78125 23.953125 21.484375 23.777344 21.195312 23.851562 C 20.765625 23.992188 20.625 24.484375 20.949219 24.726562 C 21.339844 25.027344 21.875 24.640625 21.816406 24.222656 " fill-opacity="1" fill-rule="nonzero"/><g clip-path="url(#7a27838069)"><path fill="#ffffff" d="M 18.644531 32.183594 C 18.769531 32.164062 18.789062 32.097656 18.6875 32.027344 C 18.605469 31.96875 18.394531 31.886719 18.171875 31.914062 C 18.101562 31.921875 18.070312 31.945312 18.058594 31.960938 C 17.972656 32.074219 18.382812 32.230469 18.644531 32.183594 " fill-opacity="1" fill-rule="nonzero"/></g><path fill="#ffffff" d="M 11.734375 6.804688 C 11.847656 7 12.140625 6.808594 12.234375 6.480469 C 12.292969 6.261719 12.246094 6.03125 12.082031 6.054688 C 11.828125 6.113281 11.609375 6.589844 11.734375 6.804688 " fill-opacity="1" fill-rule="nonzero"/><path fill="#ffffff" d="M 20.648438 27.96875 C 20.316406 28.066406 20.1875 28.394531 20.40625 28.582031 C 20.710938 28.84375 21.199219 28.585938 21.175781 28.261719 C 21.164062 28.050781 20.898438 27.90625 20.648438 27.96875 " fill-opacity="1" fill-rule="nonzero"/><path fill="#ffffff" d="M 16.476562 11.363281 C 16.476562 11.363281 16.476562 11.363281 16.480469 11.363281 C 16.761719 11.269531 16.824219 10.988281 16.796875 10.816406 C 16.753906 10.539062 16.484375 10.332031 16.238281 10.390625 C 16.1875 10.40625 16.085938 10.441406 16 10.574219 C 15.761719 10.945312 16.0625 11.4375 16.476562 11.363281 " fill-opacity="1" fill-rule="nonzero"/><path fill="#ffffff" d="M 18.652344 15.457031 C 19.085938 15.78125 19.566406 15.386719 19.480469 14.921875 C 19.429688 14.648438 19.15625 14.394531 18.804688 14.464844 C 18.375 14.609375 18.289062 15.179688 18.652344 15.457031 " fill-opacity="1" fill-rule="nonzero"/><g clip-path="url(#63d5ff2f2d)"><path fill="#ffffff" d="M 8.976562 4.523438 C 9.015625 4.535156 9.289062 4.355469 9.402344 4.277344 C 9.40625 4.273438 9.882812 3.949219 9.894531 3.898438 C 9.800781 3.875 8.972656 4.441406 8.976562 4.523438 " fill-opacity="1" fill-rule="nonzero"/></g><path fill="#ffffff" d="M 11.839844 5.058594 C 11.648438 5.101562 11.359375 5.539062 11.433594 5.734375 C 11.5 5.910156 11.757812 5.683594 11.871094 5.414062 C 11.945312 5.238281 11.945312 5.046875 11.839844 5.058594 " fill-opacity="1" fill-rule="nonzero"/><path fill="#ffffff" d="M 11.222656 4.152344 C 11.09375 4.152344 10.566406 4.648438 10.570312 4.808594 C 10.570312 4.910156 10.808594 4.738281 11 4.527344 C 11.113281 4.402344 11.296875 4.164062 11.222656 4.152344 " fill-opacity="1" fill-rule="nonzero"/><g clip-path="url(#1702971924)"><path fill="#ffffff" d="M 18.6875 32.433594 C 18.558594 32.394531 18.320312 32.355469 18.191406 32.371094 C 18.167969 32.375 18.128906 32.382812 18.125 32.402344 C 18.097656 32.488281 18.667969 32.554688 18.773438 32.507812 C 18.816406 32.488281 18.757812 32.457031 18.6875 32.433594 " fill-opacity="1" fill-rule="nonzero"/></g><path fill="#ffffff" d="M 7.464844 5.179688 C 7.464844 5.175781 7.464844 5.175781 7.464844 5.171875 C 7.410156 5.195312 6.738281 5.816406 6.703125 5.890625 C 6.714844 5.882812 6.714844 5.882812 6.992188 5.625 C 7.351562 5.292969 7.433594 5.210938 7.464844 5.179688 " fill-opacity="1" fill-rule="nonzero"/><path fill="#ffffff" d="M 8.023438 4.839844 C 8.460938 4.507812 8.496094 4.46875 8.519531 4.4375 C 8.472656 4.414062 7.71875 4.992188 7.710938 5.058594 C 7.71875 5.058594 7.738281 5.058594 8.023438 4.839844 " fill-opacity="1" fill-rule="nonzero"/><g clip-path="url(#87b33eea92)"><path fill="#ffffff" d="M 10.792969 3.761719 C 10.8125 3.785156 10.925781 3.722656 11.207031 3.535156 C 11.265625 3.496094 11.5625 3.296875 11.574219 3.257812 C 11.574219 3.257812 11.574219 3.257812 11.570312 3.253906 C 11.515625 3.25 10.804688 3.667969 10.792969 3.761719 " fill-opacity="1" fill-rule="nonzero"/></g><path fill="#ffffff" d="M 22.226562 26.828125 C 22.226562 26.820312 22.207031 26.398438 21.738281 26.523438 C 21.195312 26.691406 21.429688 27.121094 21.480469 27.171875 C 21.65625 27.351562 22.203125 27.257812 22.226562 26.828125 " fill-opacity="1" fill-rule="nonzero"/><path fill="#ffffff" d="M 11.929688 4.144531 C 11.785156 4.171875 11.460938 4.578125 11.476562 4.707031 C 11.492188 4.804688 11.675781 4.699219 11.832031 4.46875 C 11.867188 4.414062 12.050781 4.136719 11.929688 4.144531 " fill-opacity="1" fill-rule="nonzero"/><g clip-path="url(#4707541cd0)"><path fill="#ffffff" d="M 18.953125 32.621094 C 18.710938 32.613281 18.605469 32.609375 18.523438 32.617188 C 18.484375 32.621094 18.480469 32.625 18.480469 32.628906 C 18.535156 32.660156 19.039062 32.652344 19.109375 32.632812 C 19.105469 32.628906 19.105469 32.628906 18.953125 32.621094 " fill-opacity="1" fill-rule="nonzero"/></g><path fill="#ffffff" d="M 22.191406 22.875 C 22.265625 22.929688 22.460938 23.035156 22.746094 22.847656 C 22.835938 22.789062 22.984375 22.644531 22.949219 22.375 C 22.898438 22.023438 22.613281 21.976562 22.386719 22.042969 C 21.929688 22.203125 21.976562 22.710938 22.191406 22.875 " fill-opacity="1" fill-rule="nonzero"/><path fill="#ffffff" d="M 21.480469 19.8125 C 21.707031 20 22.332031 19.890625 22.269531 19.289062 C 22.269531 19.285156 22.191406 18.742188 21.664062 18.875 C 21.101562 19.046875 21.292969 19.65625 21.480469 19.8125 " fill-opacity="1" fill-rule="nonzero"/><path fill="#ffffff" d="M 20.652344 16.578125 C 20.695312 16.605469 20.921875 16.746094 21.183594 16.566406 C 21.296875 16.484375 21.421875 16.335938 21.367188 16.082031 C 21.296875 15.75 21.058594 15.597656 20.746094 15.6875 C 20.289062 15.851562 20.390625 16.402344 20.652344 16.578125 " fill-opacity="1" fill-rule="nonzero"/><path fill="#ffffff" d="M 17.863281 12.375 C 18.125 12.527344 18.589844 12.386719 18.492188 11.917969 C 18.4375 11.675781 18.234375 11.464844 17.941406 11.527344 C 17.480469 11.65625 17.601562 12.222656 17.863281 12.375 " fill-opacity="1" fill-rule="nonzero"/><g clip-path="url(#470aaca02c)"><path fill="#ffffff" d="M 9.769531 3.738281 C 9.769531 3.738281 9.769531 3.738281 9.769531 3.734375 C 9.691406 3.738281 9.042969 4.132812 8.953125 4.25 C 8.992188 4.246094 9.085938 4.195312 9.320312 4.042969 C 9.65625 3.832031 9.757812 3.761719 9.769531 3.738281 " fill-opacity="1" fill-rule="nonzero"/></g><path fill="#ffffff" d="M 19.828125 31.652344 C 19.804688 31.660156 19.761719 31.667969 19.730469 31.691406 C 19.65625 31.742188 19.683594 31.855469 19.875 31.898438 C 20.039062 31.9375 20.261719 31.875 20.1875 31.753906 C 20.140625 31.675781 20.011719 31.617188 19.828125 31.652344 " fill-opacity="1" fill-rule="nonzero"/><g clip-path="url(#60dade3a07)"><path fill="#ffffff" d="M 11.277344 3.816406 C 11.339844 3.792969 11.425781 3.75 11.621094 3.59375 C 11.785156 3.464844 11.96875 3.308594 11.929688 3.296875 C 11.847656 3.300781 11.210938 3.75 11.277344 3.816406 " fill-opacity="1" fill-rule="nonzero"/></g><g clip-path="url(#0f5e4c8f39)"><path fill="#ffffff" d="M 10.488281 3.664062 C 10.554688 3.644531 10.664062 3.585938 10.90625 3.445312 C 11.3125 3.207031 11.316406 3.195312 11.320312 3.183594 C 11.261719 3.171875 10.535156 3.570312 10.488281 3.664062 " fill-opacity="1" fill-rule="nonzero"/></g><path fill="#ffffff" d="M 20.378906 30.894531 C 20.367188 30.898438 20.355469 30.898438 20.339844 30.902344 C 20.179688 30.953125 20.09375 31.121094 20.300781 31.222656 C 20.480469 31.308594 20.789062 31.203125 20.734375 31.027344 C 20.722656 30.996094 20.65625 30.839844 20.378906 30.894531 " fill-opacity="1" fill-rule="nonzero"/><path fill="#ffffff" d="M 13.359375 6.453125 C 13.449219 6.570312 13.71875 6.53125 13.75 6.167969 C 13.75 6.164062 13.746094 5.839844 13.53125 5.871094 C 13.289062 5.921875 13.253906 6.320312 13.359375 6.453125 " fill-opacity="1" fill-rule="nonzero"/><path fill="#ffffff" d="M 14.304688 7.460938 C 14.308594 7.464844 14.445312 7.578125 14.574219 7.488281 C 14.621094 7.453125 14.742188 7.367188 14.730469 7.164062 C 14.730469 7.148438 14.703125 6.785156 14.421875 6.835938 C 14.148438 6.898438 14.140625 7.324219 14.304688 7.460938 " fill-opacity="1" fill-rule="nonzero"/><path fill="#ffffff" d="M 21.144531 29.929688 C 20.875 30.003906 20.863281 30.21875 21 30.316406 C 21.152344 30.429688 21.53125 30.328125 21.496094 30.085938 C 21.480469 29.941406 21.34375 29.878906 21.144531 29.929688 " fill-opacity="1" fill-rule="nonzero"/><path fill="#ffffff" d="M 19.722656 13.4375 C 19.933594 13.570312 20.402344 13.480469 20.320312 13.003906 C 20.308594 12.925781 20.160156 12.550781 19.773438 12.664062 C 19.332031 12.816406 19.539062 13.320312 19.722656 13.4375 " fill-opacity="1" fill-rule="nonzero"/><path fill="#ffffff" d="M 22.925781 24.902344 C 22.476562 25.054688 22.59375 25.441406 22.664062 25.53125 C 22.832031 25.746094 23.347656 25.613281 23.375 25.1875 C 23.378906 25.125 23.3125 24.792969 22.925781 24.902344 " fill-opacity="1" fill-rule="nonzero"/><path fill="#ffffff" d="M 8.34375 4.441406 C 8.699219 4.179688 8.699219 4.179688 8.722656 4.160156 C 8.722656 4.15625 8.726562 4.152344 8.726562 4.152344 C 8.671875 4.175781 8.15625 4.558594 8.117188 4.605469 C 8.195312 4.558594 8.269531 4.496094 8.34375 4.441406 " fill-opacity="1" fill-rule="nonzero"/><g clip-path="url(#61e20e0a0c)"><path fill="#ffffff" d="M 11.160156 3.089844 C 11.132812 3.074219 10.480469 3.394531 10.40625 3.480469 C 10.425781 3.484375 10.523438 3.4375 10.757812 3.316406 C 11.078125 3.148438 11.152344 3.109375 11.160156 3.089844 " fill-opacity="1" fill-rule="nonzero"/></g><g clip-path="url(#24382b52d1)"><path fill="#ffffff" d="M 19.816406 32.328125 C 19.925781 32.3125 19.945312 32.285156 19.886719 32.242188 C 19.882812 32.242188 19.75 32.15625 19.554688 32.191406 C 19.53125 32.195312 19.484375 32.203125 19.46875 32.226562 C 19.429688 32.273438 19.628906 32.355469 19.816406 32.328125 " fill-opacity="1" fill-rule="nonzero"/></g><path fill="#ffffff" d="M 13.078125 5.222656 C 13.101562 5.09375 13.101562 4.941406 12.96875 4.957031 C 12.765625 4.996094 12.6875 5.382812 12.757812 5.476562 C 12.828125 5.566406 13.027344 5.5 13.078125 5.222656 " fill-opacity="1" fill-rule="nonzero"/><path fill="#ffffff" d="M 22.449219 28.9375 C 22.445312 28.839844 22.398438 28.6875 22.121094 28.753906 C 21.71875 28.878906 21.882812 29.160156 21.921875 29.191406 C 22.054688 29.316406 22.457031 29.203125 22.449219 28.9375 " fill-opacity="1" fill-rule="nonzero"/><g clip-path="url(#9f434971c2)"><path fill="#ffffff" d="M 12.1875 3.558594 C 12.195312 3.546875 12.203125 3.539062 12.210938 3.53125 C 12.398438 3.335938 12.386719 3.316406 12.363281 3.316406 C 12.265625 3.332031 11.894531 3.671875 11.890625 3.753906 C 11.886719 3.789062 11.957031 3.789062 12.1875 3.558594 " fill-opacity="1" fill-rule="nonzero"/></g><path fill="#ffffff" d="M 15.550781 8.480469 C 15.726562 8.597656 16.058594 8.484375 15.984375 8.136719 C 15.949219 7.957031 15.828125 7.78125 15.609375 7.835938 C 15.277344 7.9375 15.394531 8.375 15.550781 8.480469 " fill-opacity="1" fill-rule="nonzero"/><path fill="#ffffff" d="M 17.046875 9.484375 C 17.257812 9.605469 17.574219 9.453125 17.480469 9.132812 C 17.441406 9.003906 17.335938 8.792969 17.074219 8.851562 C 16.730469 8.945312 16.878906 9.382812 17.046875 9.484375 " fill-opacity="1" fill-rule="nonzero"/><path fill="#ffffff" d="M 22.628906 17.617188 C 22.816406 17.789062 23.292969 17.734375 23.253906 17.195312 C 23.242188 17.042969 23.058594 16.917969 23.054688 16.917969 C 22.9375 16.84375 22.824219 16.875 22.765625 16.890625 C 22.351562 17.027344 22.46875 17.472656 22.628906 17.617188 " fill-opacity="1" fill-rule="nonzero"/><g clip-path="url(#2011fe1d88)"><path fill="#ffffff" d="M 19.558594 32.496094 C 19.542969 32.5 19.507812 32.503906 19.511719 32.515625 C 19.511719 32.527344 19.589844 32.539062 19.714844 32.542969 C 19.777344 32.542969 19.921875 32.535156 19.925781 32.515625 C 19.921875 32.511719 19.917969 32.511719 19.867188 32.503906 C 19.867188 32.503906 19.691406 32.476562 19.558594 32.496094 " fill-opacity="1" fill-rule="nonzero"/></g><path fill="#ffffff" d="M 12.492188 4.523438 C 12.5 4.546875 12.527344 4.59375 12.605469 4.539062 C 12.644531 4.507812 12.707031 4.453125 12.757812 4.324219 C 12.796875 4.234375 12.84375 4.082031 12.75 4.089844 C 12.621094 4.109375 12.457031 4.421875 12.492188 4.523438 " fill-opacity="1" fill-rule="nonzero"/><path fill="#ffffff" d="M 23.445312 20.839844 C 23.546875 20.910156 23.753906 20.914062 23.824219 20.863281 C 23.890625 20.816406 24.097656 20.675781 24.054688 20.414062 C 24.019531 20.203125 23.867188 20.027344 23.59375 20.113281 C 23.167969 20.273438 23.289062 20.730469 23.445312 20.839844 " fill-opacity="1" fill-rule="nonzero"/><g clip-path="url(#33f692009d)"><path fill="#ffffff" d="M 9.441406 3.773438 C 9.445312 3.773438 9.785156 3.574219 9.820312 3.539062 C 9.820312 3.539062 9.820312 3.539062 9.820312 3.535156 C 9.765625 3.546875 9.253906 3.839844 9.1875 3.914062 C 9.210938 3.910156 9.269531 3.875 9.441406 3.773438 " fill-opacity="1" fill-rule="nonzero"/></g><path fill="#ffffff" d="M 24.171875 23.152344 C 23.855469 23.257812 23.824219 23.585938 23.976562 23.738281 C 24.140625 23.90625 24.542969 23.726562 24.535156 23.417969 C 24.535156 23.355469 24.511719 23.058594 24.171875 23.152344 " fill-opacity="1" fill-rule="nonzero"/><path fill="#ffffff" d="M 23.535156 27.582031 C 23.535156 27.503906 23.507812 27.328125 23.242188 27.394531 C 22.933594 27.488281 22.941406 27.753906 23.027344 27.84375 C 23.160156 27.980469 23.53125 27.828125 23.535156 27.582031 " fill-opacity="1" fill-rule="nonzero"/><path fill="#ffffff" d="M 21.703125 14.453125 C 21.921875 14.589844 22.296875 14.421875 22.203125 14.078125 C 22.175781 13.992188 22.074219 13.710938 21.75 13.800781 C 21.390625 13.917969 21.523438 14.335938 21.703125 14.453125 " fill-opacity="1" fill-rule="nonzero"/><path fill="#ffffff" d="M 18.746094 10.457031 C 18.902344 10.558594 19.242188 10.496094 19.160156 10.148438 C 19.160156 10.144531 19.0625 9.800781 18.753906 9.890625 C 18.417969 10.007812 18.625 10.382812 18.746094 10.457031 " fill-opacity="1" fill-rule="nonzero"/><g clip-path="url(#ea8db3d3bc)"><path fill="#ffffff" d="M 12.792969 3.5 C 12.808594 3.480469 12.933594 3.304688 12.871094 3.304688 C 12.78125 3.324219 12.589844 3.585938 12.59375 3.640625 C 12.59375 3.644531 12.621094 3.730469 12.792969 3.5 " fill-opacity="1" fill-rule="nonzero"/></g><g clip-path="url(#860f1f3968)"><path fill="#ffffff" d="M 20.960938 31.941406 C 20.949219 31.945312 20.941406 31.945312 20.929688 31.949219 C 20.84375 31.980469 20.867188 32.023438 20.90625 32.042969 C 20.976562 32.078125 21.144531 32.050781 21.121094 31.976562 C 21.121094 31.976562 21.085938 31.917969 20.960938 31.941406 " fill-opacity="1" fill-rule="nonzero"/></g><path fill="#ffffff" d="M 24.445312 25.878906 C 24.28125 25.941406 24.167969 26.144531 24.273438 26.269531 C 24.382812 26.398438 24.675781 26.28125 24.695312 26.050781 C 24.710938 25.871094 24.582031 25.835938 24.445312 25.878906 " fill-opacity="1" fill-rule="nonzero"/><path fill="#ffffff" d="M 20.628906 11.417969 C 20.828125 11.515625 21.050781 11.359375 20.960938 11.121094 C 20.898438 10.960938 20.757812 10.886719 20.613281 10.933594 C 20.34375 11.035156 20.484375 11.347656 20.628906 11.417969 " fill-opacity="1" fill-rule="nonzero"/><path fill="#ffffff" d="M 21.527344 31.328125 C 21.398438 31.359375 21.378906 31.441406 21.421875 31.480469 C 21.496094 31.554688 21.695312 31.492188 21.691406 31.398438 C 21.6875 31.359375 21.652344 31.300781 21.527344 31.328125 " fill-opacity="1" fill-rule="nonzero"/><g clip-path="url(#ab4452bf04)"><path fill="#ffffff" d="M 24.65625 18.640625 C 24.78125 18.734375 25.074219 18.628906 25.03125 18.359375 C 25.011719 18.226562 24.941406 18.078125 24.730469 18.144531 C 24.457031 18.242188 24.539062 18.554688 24.65625 18.640625 " fill-opacity="1" fill-rule="nonzero"/></g><g clip-path="url(#533959d83a)"><path fill="#ffffff" d="M 25.402344 21.304688 C 25.140625 21.398438 25.199219 21.683594 25.289062 21.75 C 25.289062 21.75 25.40625 21.828125 25.542969 21.722656 C 25.574219 21.699219 25.671875 21.628906 25.65625 21.476562 C 25.648438 21.386719 25.601562 21.242188 25.402344 21.304688 " fill-opacity="1" fill-rule="nonzero"/></g><path fill="#ffffff" d="M 22.316406 30.5 C 22.121094 30.558594 22.195312 30.691406 22.199219 30.691406 C 22.25 30.757812 22.464844 30.707031 22.476562 30.578125 C 22.480469 30.542969 22.472656 30.460938 22.316406 30.5 " fill-opacity="1" fill-rule="nonzero"/><path fill="#ffffff" d="M 16.273438 6.875 C 16.359375 6.925781 16.542969 6.875 16.480469 6.6875 C 16.460938 6.625 16.402344 6.488281 16.261719 6.527344 C 16.074219 6.585938 16.191406 6.828125 16.273438 6.875 " fill-opacity="1" fill-rule="nonzero"/><g clip-path="url(#6b499729e2)"><path fill="#ffffff" d="M 20.800781 32.328125 C 20.785156 32.320312 20.738281 32.304688 20.65625 32.320312 C 20.644531 32.324219 20.617188 32.328125 20.609375 32.339844 C 20.597656 32.363281 20.722656 32.375 20.796875 32.351562 C 20.816406 32.34375 20.820312 32.335938 20.800781 32.328125 " fill-opacity="1" fill-rule="nonzero"/></g><path fill="#ffffff" d="M 15.050781 5.976562 C 15.113281 6.03125 15.285156 6.023438 15.257812 5.816406 C 15.257812 5.816406 15.226562 5.613281 15.074219 5.648438 C 14.925781 5.695312 14.976562 5.917969 15.050781 5.976562 " fill-opacity="1" fill-rule="nonzero"/><path fill="#ffffff" d="M 13.710938 4.15625 C 13.71875 4.109375 13.730469 4 13.65625 4.007812 C 13.558594 4.03125 13.539062 4.222656 13.574219 4.265625 C 13.609375 4.308594 13.691406 4.28125 13.710938 4.15625 " fill-opacity="1" fill-rule="nonzero"/><path fill="#ffffff" d="M 14.152344 5.109375 C 14.167969 5.125 14.21875 5.15625 14.277344 5.105469 C 14.300781 5.082031 14.332031 5.039062 14.324219 4.953125 C 14.320312 4.914062 14.300781 4.78125 14.199219 4.804688 C 14.066406 4.84375 14.09375 5.0625 14.152344 5.109375 " fill-opacity="1" fill-rule="nonzero"/><path fill="#ffffff" d="M 23.738281 15.429688 C 23.84375 15.492188 24.132812 15.445312 24.070312 15.148438 C 24.070312 15.144531 24.003906 14.894531 23.769531 14.964844 C 23.5 15.0625 23.628906 15.363281 23.738281 15.429688 " fill-opacity="1" fill-rule="nonzero"/><path fill="#ffffff" d="M 17.765625 7.761719 C 17.867188 7.796875 17.894531 7.769531 17.929688 7.730469 C 17.945312 7.710938 17.980469 7.65625 17.941406 7.5625 C 17.898438 7.460938 17.804688 7.40625 17.714844 7.433594 C 17.710938 7.433594 17.703125 7.433594 17.699219 7.4375 C 17.578125 7.488281 17.621094 7.707031 17.765625 7.761719 " fill-opacity="1" fill-rule="nonzero"/><path fill="#ffffff" d="M 23.320312 29.449219 C 23.183594 29.488281 23.140625 29.601562 23.179688 29.65625 C 23.214844 29.710938 23.324219 29.683594 23.324219 29.683594 C 23.324219 29.683594 23.4375 29.625 23.453125 29.546875 C 23.460938 29.507812 23.453125 29.410156 23.320312 29.449219 " fill-opacity="1" fill-rule="nonzero"/><path fill="#ffffff" d="M 24.457031 28.207031 C 24.316406 28.257812 24.324219 28.375 24.34375 28.402344 C 24.382812 28.453125 24.539062 28.40625 24.5625 28.292969 C 24.570312 28.273438 24.585938 28.167969 24.457031 28.207031 " fill-opacity="1" fill-rule="nonzero"/><g clip-path="url(#decd1a5dca)"><path fill="#ffffff" d="M 25.71875 24.21875 C 25.574219 24.269531 25.546875 24.4375 25.609375 24.507812 C 25.679688 24.585938 25.878906 24.488281 25.886719 24.339844 C 25.890625 24.273438 25.871094 24.171875 25.71875 24.21875 " fill-opacity="1" fill-rule="nonzero"/></g><path fill="#ffffff" d="M 22.609375 12.335938 C 22.710938 12.386719 22.894531 12.308594 22.828125 12.136719 C 22.800781 12.070312 22.738281 11.964844 22.605469 12.007812 C 22.40625 12.078125 22.523438 12.292969 22.609375 12.335938 " fill-opacity="1" fill-rule="nonzero"/><path fill="#ffffff" d="M 19.453125 8.617188 C 19.460938 8.621094 19.523438 8.644531 19.566406 8.601562 C 19.601562 8.566406 19.613281 8.527344 19.59375 8.480469 C 19.59375 8.480469 19.535156 8.34375 19.417969 8.375 C 19.410156 8.378906 19.40625 8.378906 19.398438 8.382812 C 19.289062 8.433594 19.371094 8.585938 19.453125 8.617188 " fill-opacity="1" fill-rule="nonzero"/><g fill="#ffffff" fill-opacity="1"><g transform="translate(28.145316, 18.603313)"><g><path d="M 8.875 -2.625 L 3.203125 -2.625 L 2.09375 0 L -0.078125 0 L 5.015625 -11.34375 L 7.09375 -11.34375 L 12.21875 0 L 10.015625 0 Z M 8.1875 -4.28125 L 6.046875 -9.234375 L 3.921875 -4.28125 Z M 8.1875 -4.28125 "/></g></g></g><g fill="#ffffff" fill-opacity="1"><g transform="translate(40.283663, 18.603313)"><g><path d="M 9.78125 -8.65625 L 9.78125 3.140625 L 7.765625 3.140625 L 7.765625 -1.046875 C 7.078125 -0.273438 6.148438 0.109375 4.984375 0.109375 C 4.148438 0.109375 3.398438 -0.0703125 2.734375 -0.4375 C 2.066406 -0.800781 1.546875 -1.316406 1.171875 -1.984375 C 0.796875 -2.660156 0.609375 -3.441406 0.609375 -4.328125 C 0.609375 -5.203125 0.796875 -5.972656 1.171875 -6.640625 C 1.554688 -7.304688 2.078125 -7.820312 2.734375 -8.1875 C 3.398438 -8.5625 4.148438 -8.75 4.984375 -8.75 C 5.578125 -8.75 6.117188 -8.644531 6.609375 -8.4375 C 7.109375 -8.238281 7.523438 -7.929688 7.859375 -7.515625 L 7.859375 -8.65625 Z M 5.21875 -1.625 C 5.957031 -1.625 6.570312 -1.867188 7.0625 -2.359375 C 7.550781 -2.859375 7.796875 -3.515625 7.796875 -4.328125 C 7.796875 -5.140625 7.550781 -5.789062 7.0625 -6.28125 C 6.570312 -6.78125 5.957031 -7.03125 5.21875 -7.03125 C 4.46875 -7.03125 3.851562 -6.78125 3.375 -6.28125 C 2.894531 -5.789062 2.65625 -5.140625 2.65625 -4.328125 C 2.65625 -3.515625 2.894531 -2.859375 3.375 -2.359375 C 3.851562 -1.867188 4.46875 -1.625 5.21875 -1.625 Z M 5.21875 -1.625 "/></g></g></g><g fill="#ffffff" fill-opacity="1"><g transform="translate(51.401022, 18.603313)"><g><path d="M 9.78125 -8.65625 L 9.78125 3.140625 L 7.765625 3.140625 L 7.765625 -1.046875 C 7.078125 -0.273438 6.148438 0.109375 4.984375 0.109375 C 4.148438 0.109375 3.398438 -0.0703125 2.734375 -0.4375 C 2.066406 -0.800781 1.546875 -1.316406 1.171875 -1.984375 C 0.796875 -2.660156 0.609375 -3.441406 0.609375 -4.328125 C 0.609375 -5.203125 0.796875 -5.972656 1.171875 -6.640625 C 1.554688 -7.304688 2.078125 -7.820312 2.734375 -8.1875 C 3.398438 -8.5625 4.148438 -8.75 4.984375 -8.75 C 5.578125 -8.75 6.117188 -8.644531 6.609375 -8.4375 C 7.109375 -8.238281 7.523438 -7.929688 7.859375 -7.515625 L 7.859375 -8.65625 Z M 5.21875 -1.625 C 5.957031 -1.625 6.570312 -1.867188 7.0625 -2.359375 C 7.550781 -2.859375 7.796875 -3.515625 7.796875 -4.328125 C 7.796875 -5.140625 7.550781 -5.789062 7.0625 -6.28125 C 6.570312 -6.78125 5.957031 -7.03125 5.21875 -7.03125 C 4.46875 -7.03125 3.851562 -6.78125 3.375 -6.28125 C 2.894531 -5.789062 2.65625 -5.140625 2.65625 -4.328125 C 2.65625 -3.515625 2.894531 -2.859375 3.375 -2.359375 C 3.851562 -1.867188 4.46875 -1.625 5.21875 -1.625 Z M 5.21875 -1.625 "/></g></g></g><g fill="#ffffff" fill-opacity="1"><g transform="translate(62.518381, 18.603313)"><g><path d="M 4.640625 -8.75 C 5.910156 -8.75 6.882812 -8.441406 7.5625 -7.828125 C 8.238281 -7.222656 8.578125 -6.304688 8.578125 -5.078125 L 8.578125 0 L 6.65625 0 L 6.65625 -1.046875 C 6.40625 -0.671875 6.050781 -0.382812 5.59375 -0.1875 C 5.132812 0.0078125 4.582031 0.109375 3.9375 0.109375 C 3.289062 0.109375 2.722656 0 2.234375 -0.21875 C 1.742188 -0.4375 1.367188 -0.742188 1.109375 -1.140625 C 0.847656 -1.535156 0.71875 -1.984375 0.71875 -2.484375 C 0.71875 -3.253906 1.003906 -3.875 1.578125 -4.34375 C 2.160156 -4.820312 3.070312 -5.0625 4.3125 -5.0625 L 6.546875 -5.0625 L 6.546875 -5.1875 C 6.546875 -5.789062 6.363281 -6.253906 6 -6.578125 C 5.632812 -6.898438 5.097656 -7.0625 4.390625 -7.0625 C 3.898438 -7.0625 3.421875 -6.984375 2.953125 -6.828125 C 2.484375 -6.679688 2.085938 -6.472656 1.765625 -6.203125 L 0.96875 -7.6875 C 1.425781 -8.03125 1.972656 -8.289062 2.609375 -8.46875 C 3.242188 -8.65625 3.921875 -8.75 4.640625 -8.75 Z M 4.359375 -1.359375 C 4.867188 -1.359375 5.316406 -1.472656 5.703125 -1.703125 C 6.097656 -1.941406 6.378906 -2.273438 6.546875 -2.703125 L 6.546875 -3.703125 L 4.453125 -3.703125 C 3.285156 -3.703125 2.703125 -3.320312 2.703125 -2.5625 C 2.703125 -2.195312 2.847656 -1.90625 3.140625 -1.6875 C 3.429688 -1.46875 3.835938 -1.359375 4.359375 -1.359375 Z M 4.359375 -1.359375 "/></g></g></g><g fill="#ffffff" fill-opacity="1"><g transform="translate(72.355462, 18.603313)"><g><path d="M 9.796875 -12.015625 L 9.796875 0 L 7.859375 0 L 7.859375 -1.125 C 7.523438 -0.707031 7.109375 -0.394531 6.609375 -0.1875 C 6.117188 0.0078125 5.578125 0.109375 4.984375 0.109375 C 4.160156 0.109375 3.414062 -0.0703125 2.75 -0.4375 C 2.082031 -0.800781 1.554688 -1.320312 1.171875 -2 C 0.796875 -2.675781 0.609375 -3.453125 0.609375 -4.328125 C 0.609375 -5.203125 0.796875 -5.972656 1.171875 -6.640625 C 1.554688 -7.304688 2.082031 -7.820312 2.75 -8.1875 C 3.414062 -8.5625 4.160156 -8.75 4.984375 -8.75 C 5.554688 -8.75 6.082031 -8.648438 6.5625 -8.453125 C 7.039062 -8.265625 7.445312 -7.972656 7.78125 -7.578125 L 7.78125 -12.015625 Z M 5.234375 -1.625 C 5.722656 -1.625 6.160156 -1.734375 6.546875 -1.953125 C 6.929688 -2.171875 7.238281 -2.484375 7.46875 -2.890625 C 7.695312 -3.304688 7.8125 -3.785156 7.8125 -4.328125 C 7.8125 -4.867188 7.695312 -5.34375 7.46875 -5.75 C 7.238281 -6.164062 6.929688 -6.484375 6.546875 -6.703125 C 6.160156 -6.921875 5.722656 -7.03125 5.234375 -7.03125 C 4.742188 -7.03125 4.304688 -6.921875 3.921875 -6.703125 C 3.535156 -6.484375 3.226562 -6.164062 3 -5.75 C 2.769531 -5.34375 2.65625 -4.867188 2.65625 -4.328125 C 2.65625 -3.785156 2.769531 -3.304688 3 -2.890625 C 3.226562 -2.484375 3.535156 -2.171875 3.921875 -1.953125 C 4.304688 -1.734375 4.742188 -1.625 5.234375 -1.625 Z M 5.234375 -1.625 "/></g></g></g><g fill="#ffffff" fill-opacity="1"><g transform="translate(83.489028, 18.603313)"><g><path d="M 1.328125 -8.65625 L 3.359375 -8.65625 L 3.359375 0 L 1.328125 0 Z M 2.34375 -10.078125 C 1.976562 -10.078125 1.671875 -10.191406 1.421875 -10.421875 C 1.171875 -10.660156 1.046875 -10.953125 1.046875 -11.296875 C 1.046875 -11.640625 1.171875 -11.925781 1.421875 -12.15625 C 1.671875 -12.394531 1.976562 -12.515625 2.34375 -12.515625 C 2.707031 -12.515625 3.015625 -12.398438 3.265625 -12.171875 C 3.515625 -11.953125 3.640625 -11.675781 3.640625 -11.34375 C 3.640625 -10.988281 3.515625 -10.6875 3.265625 -10.4375 C 3.023438 -10.195312 2.71875 -10.078125 2.34375 -10.078125 Z M 2.34375 -10.078125 "/></g></g></g><g fill="#ffffff" fill-opacity="1"><g transform="translate(27.766357, 28.155587)"><g><path d="M 1.3125 -3.296875 L 0.015625 -3.296875 L 0.015625 -3.921875 L 3.34375 -3.921875 L 3.34375 -3.296875 L 2.046875 -3.296875 L 2.046875 0 L 1.3125 0 Z M 1.3125 -3.296875 "/></g></g></g><g fill="#ffffff" fill-opacity="1"><g transform="translate(33.738178, 28.155587)"><g><path d="M 3.46875 -0.609375 L 3.46875 0 L 0.53125 0 L 0.53125 -3.921875 L 3.390625 -3.921875 L 3.390625 -3.3125 L 1.25 -3.3125 L 1.25 -2.28125 L 3.140625 -2.28125 L 3.140625 -1.6875 L 1.25 -1.6875 L 1.25 -0.609375 Z M 3.46875 -0.609375 "/></g></g></g><g fill="#ffffff" fill-opacity="1"><g transform="translate(40.090229, 28.155587)"><g><path d="M 2.34375 0.0625 C 1.945312 0.0625 1.585938 -0.0234375 1.265625 -0.203125 C 0.941406 -0.378906 0.691406 -0.617188 0.515625 -0.921875 C 0.335938 -1.222656 0.25 -1.566406 0.25 -1.953125 C 0.25 -2.335938 0.335938 -2.679688 0.515625 -2.984375 C 0.703125 -3.296875 0.953125 -3.535156 1.265625 -3.703125 C 1.585938 -3.878906 1.945312 -3.96875 2.34375 -3.96875 C 2.664062 -3.96875 2.957031 -3.910156 3.21875 -3.796875 C 3.488281 -3.691406 3.710938 -3.53125 3.890625 -3.3125 L 3.421875 -2.875 C 3.140625 -3.175781 2.789062 -3.328125 2.375 -3.328125 C 2.101562 -3.328125 1.863281 -3.269531 1.65625 -3.15625 C 1.445312 -3.039062 1.28125 -2.878906 1.15625 -2.671875 C 1.039062 -2.460938 0.984375 -2.222656 0.984375 -1.953125 C 0.984375 -1.691406 1.039062 -1.457031 1.15625 -1.25 C 1.28125 -1.039062 1.445312 -0.875 1.65625 -0.75 C 1.863281 -0.632812 2.101562 -0.578125 2.375 -0.578125 C 2.789062 -0.578125 3.140625 -0.734375 3.421875 -1.046875 L 3.890625 -0.59375 C 3.710938 -0.382812 3.488281 -0.222656 3.21875 -0.109375 C 2.945312 0.00390625 2.65625 0.0625 2.34375 0.0625 Z M 2.34375 0.0625 "/></g></g></g><g fill="#ffffff" fill-opacity="1"><g transform="translate(46.761004, 28.155587)"><g><path d="M 4 -3.921875 L 4 0 L 3.28125 0 L 3.28125 -1.671875 L 1.25 -1.671875 L 1.25 0 L 0.53125 0 L 0.53125 -3.921875 L 1.25 -3.921875 L 1.25 -2.296875 L 3.28125 -2.296875 L 3.28125 -3.921875 Z M 4 -3.921875 "/></g></g></g><g fill="#ffffff" fill-opacity="1"><g transform="translate(53.895879, 28.155587)"><g><path d="M 4 -3.921875 L 4 0 L 3.40625 0 L 1.25 -2.65625 L 1.25 0 L 0.53125 0 L 0.53125 -3.921875 L 1.125 -3.921875 L 3.28125 -1.265625 L 3.28125 -3.921875 Z M 4 -3.921875 "/></g></g></g><g fill="#ffffff" fill-opacity="1"><g transform="translate(61.030755, 28.155587)"><g><path d="M 2.359375 0.0625 C 1.953125 0.0625 1.585938 -0.0234375 1.265625 -0.203125 C 0.953125 -0.378906 0.703125 -0.617188 0.515625 -0.921875 C 0.335938 -1.234375 0.25 -1.578125 0.25 -1.953125 C 0.25 -2.335938 0.335938 -2.679688 0.515625 -2.984375 C 0.703125 -3.296875 0.953125 -3.535156 1.265625 -3.703125 C 1.585938 -3.878906 1.953125 -3.96875 2.359375 -3.96875 C 2.753906 -3.96875 3.113281 -3.878906 3.4375 -3.703125 C 3.757812 -3.535156 4.007812 -3.296875 4.1875 -2.984375 C 4.375 -2.679688 4.46875 -2.335938 4.46875 -1.953125 C 4.46875 -1.566406 4.375 -1.222656 4.1875 -0.921875 C 4.007812 -0.617188 3.757812 -0.378906 3.4375 -0.203125 C 3.113281 -0.0234375 2.753906 0.0625 2.359375 0.0625 Z M 2.359375 -0.578125 C 2.617188 -0.578125 2.851562 -0.632812 3.0625 -0.75 C 3.269531 -0.875 3.429688 -1.039062 3.546875 -1.25 C 3.671875 -1.457031 3.734375 -1.691406 3.734375 -1.953125 C 3.734375 -2.210938 3.671875 -2.445312 3.546875 -2.65625 C 3.429688 -2.875 3.269531 -3.039062 3.0625 -3.15625 C 2.851562 -3.269531 2.617188 -3.328125 2.359375 -3.328125 C 2.097656 -3.328125 1.863281 -3.269531 1.65625 -3.15625 C 1.445312 -3.039062 1.28125 -2.875 1.15625 -2.65625 C 1.039062 -2.445312 0.984375 -2.210938 0.984375 -1.953125 C 0.984375 -1.691406 1.039062 -1.457031 1.15625 -1.25 C 1.28125 -1.039062 1.445312 -0.875 1.65625 -0.75 C 1.863281 -0.632812 2.097656 -0.578125 2.359375 -0.578125 Z M 2.359375 -0.578125 "/></g></g></g><g fill="#ffffff" fill-opacity="1"><g transform="translate(68.344564, 28.155587)"><g><path d="M 0.53125 -3.921875 L 1.25 -3.921875 L 1.25 -0.609375 L 3.296875 -0.609375 L 3.296875 0 L 0.53125 0 Z M 0.53125 -3.921875 "/></g></g></g><g fill="#ffffff" fill-opacity="1"><g transform="translate(74.299613, 28.155587)"><g><path d="M 2.359375 0.0625 C 1.953125 0.0625 1.585938 -0.0234375 1.265625 -0.203125 C 0.953125 -0.378906 0.703125 -0.617188 0.515625 -0.921875 C 0.335938 -1.234375 0.25 -1.578125 0.25 -1.953125 C 0.25 -2.335938 0.335938 -2.679688 0.515625 -2.984375 C 0.703125 -3.296875 0.953125 -3.535156 1.265625 -3.703125 C 1.585938 -3.878906 1.953125 -3.96875 2.359375 -3.96875 C 2.753906 -3.96875 3.113281 -3.878906 3.4375 -3.703125 C 3.757812 -3.535156 4.007812 -3.296875 4.1875 -2.984375 C 4.375 -2.679688 4.46875 -2.335938 4.46875 -1.953125 C 4.46875 -1.566406 4.375 -1.222656 4.1875 -0.921875 C 4.007812 -0.617188 3.757812 -0.378906 3.4375 -0.203125 C 3.113281 -0.0234375 2.753906 0.0625 2.359375 0.0625 Z M 2.359375 -0.578125 C 2.617188 -0.578125 2.851562 -0.632812 3.0625 -0.75 C 3.269531 -0.875 3.429688 -1.039062 3.546875 -1.25 C 3.671875 -1.457031 3.734375 -1.691406 3.734375 -1.953125 C 3.734375 -2.210938 3.671875 -2.445312 3.546875 -2.65625 C 3.429688 -2.875 3.269531 -3.039062 3.0625 -3.15625 C 2.851562 -3.269531 2.617188 -3.328125 2.359375 -3.328125 C 2.097656 -3.328125 1.863281 -3.269531 1.65625 -3.15625 C 1.445312 -3.039062 1.28125 -2.875 1.15625 -2.65625 C 1.039062 -2.445312 0.984375 -2.210938 0.984375 -1.953125 C 0.984375 -1.691406 1.039062 -1.457031 1.15625 -1.25 C 1.28125 -1.039062 1.445312 -0.875 1.65625 -0.75 C 1.863281 -0.632812 2.097656 -0.578125 2.359375 -0.578125 Z M 2.359375 -0.578125 "/></g></g></g><g fill="#ffffff" fill-opacity="1"><g transform="translate(81.613422, 28.155587)"><g><path d="M 3.203125 -2 L 3.890625 -2 L 3.890625 -0.4375 C 3.679688 -0.28125 3.441406 -0.15625 3.171875 -0.0625 C 2.910156 0.0195312 2.640625 0.0625 2.359375 0.0625 C 1.953125 0.0625 1.585938 -0.0234375 1.265625 -0.203125 C 0.953125 -0.378906 0.703125 -0.617188 0.515625 -0.921875 C 0.335938 -1.222656 0.25 -1.566406 0.25 -1.953125 C 0.25 -2.335938 0.335938 -2.679688 0.515625 -2.984375 C 0.703125 -3.296875 0.957031 -3.535156 1.28125 -3.703125 C 1.601562 -3.878906 1.960938 -3.96875 2.359375 -3.96875 C 2.691406 -3.96875 2.988281 -3.910156 3.25 -3.796875 C 3.519531 -3.691406 3.75 -3.535156 3.9375 -3.328125 L 3.484375 -2.890625 C 3.179688 -3.179688 2.820312 -3.328125 2.40625 -3.328125 C 2.125 -3.328125 1.875 -3.269531 1.65625 -3.15625 C 1.445312 -3.039062 1.28125 -2.878906 1.15625 -2.671875 C 1.039062 -2.460938 0.984375 -2.222656 0.984375 -1.953125 C 0.984375 -1.691406 1.039062 -1.457031 1.15625 -1.25 C 1.28125 -1.039062 1.445312 -0.875 1.65625 -0.75 C 1.875 -0.632812 2.117188 -0.578125 2.390625 -0.578125 C 2.703125 -0.578125 2.972656 -0.644531 3.203125 -0.78125 Z M 3.203125 -2 "/></g></g></g><g fill="#ffffff" fill-opacity="1"><g transform="translate(88.535818, 28.155587)"><g><path d="M 0.53125 -3.921875 L 1.25 -3.921875 L 1.25 0 L 0.53125 0 Z M 0.53125 -3.921875 "/></g></g></g><g fill="#ffffff" fill-opacity="1"><g transform="translate(92.925216, 28.155587)"><g><path d="M 3.46875 -0.609375 L 3.46875 0 L 0.53125 0 L 0.53125 -3.921875 L 3.390625 -3.921875 L 3.390625 -3.3125 L 1.25 -3.3125 L 1.25 -2.28125 L 3.140625 -2.28125 L 3.140625 -1.6875 L 1.25 -1.6875 L 1.25 -0.609375 Z M 3.46875 -0.609375 "/></g></g></g><g fill="#ffffff" fill-opacity="1"><g transform="translate(99.277266, 28.155587)"><g><path d="M 1.734375 0.0625 C 1.429688 0.0625 1.140625 0.0195312 0.859375 -0.0625 C 0.578125 -0.15625 0.359375 -0.269531 0.203125 -0.40625 L 0.453125 -0.984375 C 0.609375 -0.847656 0.800781 -0.738281 1.03125 -0.65625 C 1.269531 -0.582031 1.503906 -0.546875 1.734375 -0.546875 C 2.023438 -0.546875 2.242188 -0.59375 2.390625 -0.6875 C 2.535156 -0.78125 2.609375 -0.90625 2.609375 -1.0625 C 2.609375 -1.164062 2.566406 -1.253906 2.484375 -1.328125 C 2.398438 -1.398438 2.296875 -1.457031 2.171875 -1.5 C 2.054688 -1.539062 1.890625 -1.585938 1.671875 -1.640625 C 1.378906 -1.710938 1.140625 -1.785156 0.953125 -1.859375 C 0.765625 -1.929688 0.601562 -2.039062 0.46875 -2.1875 C 0.34375 -2.34375 0.28125 -2.546875 0.28125 -2.796875 C 0.28125 -3.015625 0.335938 -3.210938 0.453125 -3.390625 C 0.566406 -3.566406 0.742188 -3.707031 0.984375 -3.8125 C 1.222656 -3.914062 1.515625 -3.96875 1.859375 -3.96875 C 2.097656 -3.96875 2.332031 -3.9375 2.5625 -3.875 C 2.789062 -3.820312 2.988281 -3.738281 3.15625 -3.625 L 2.9375 -3.0625 C 2.757812 -3.15625 2.578125 -3.226562 2.390625 -3.28125 C 2.203125 -3.34375 2.019531 -3.375 1.84375 -3.375 C 1.5625 -3.375 1.347656 -3.320312 1.203125 -3.21875 C 1.066406 -3.125 1 -3 1 -2.84375 C 1 -2.726562 1.035156 -2.632812 1.109375 -2.5625 C 1.191406 -2.488281 1.296875 -2.429688 1.421875 -2.390625 C 1.546875 -2.347656 1.71875 -2.300781 1.9375 -2.25 C 2.21875 -2.1875 2.453125 -2.117188 2.640625 -2.046875 C 2.828125 -1.972656 2.988281 -1.859375 3.125 -1.703125 C 3.257812 -1.554688 3.328125 -1.359375 3.328125 -1.109375 C 3.328125 -0.890625 3.265625 -0.691406 3.140625 -0.515625 C 3.023438 -0.335938 2.847656 -0.195312 2.609375 -0.09375 C 2.367188 0.0078125 2.078125 0.0625 1.734375 0.0625 Z M 1.734375 0.0625 "/></g></g></g></svg>